<svg xmlns="http://www.w3.org/2000/svg" xmlns:xlink="http://www.w3.org/1999/xlink" viewBox="0 0 1400 900" width="1400" height="900">
  <defs>
    <linearGradient id="chartGrad" x1="0" y1="0" x2="0" y2="1">
      <stop offset="0%" stop-color="#2563EB" stop-opacity="0.10"/>
      <stop offset="100%" stop-color="#2563EB" stop-opacity="0"/>
    </linearGradient>
    <filter id="shadow" x="-20%" y="-20%" width="140%" height="140%">
      <feDropShadow dx="0" dy="2" stdDeviation="3" flood-opacity="0.08"/>
    </filter>
  </defs>

  <!-- Background -->
  <rect width="1400" height="900" fill="#EEF0F8"/>

  <!-- Header -->
  <rect x="0" y="0" width="1400" height="48" fill="white"/>
  <line x1="0" y1="48" x2="1400" y2="48" stroke="#F1F5F9" stroke-width="1"/>

  <!-- Search bar -->
  <rect x="24" y="12" width="280" height="24" rx="6" fill="#F8FAFC"/>
  <circle cx="38" cy="22" r="5" fill="none" stroke="#94A3B8" stroke-width="1.2"/>
  <line x1="41" y1="25" x2="44" y2="28" stroke="#94A3B8" stroke-width="1.2"/>
  <text x="56" y="28" font-family="system-ui, -apple-system, sans-serif" font-size="14" fill="#94A3B8">Pretraži...</text>

  <!-- Header buttons -->
  <rect x="1050" y="10" width="120" height="28" rx="14" fill="#1B2B6B"/>
  <text x="1110" y="28" font-family="system-ui, sans-serif" font-size="12" font-weight="600" fill="white" text-anchor="middle">+ Zakaži termin</text>
  <rect x="1180" y="10" width="100" height="28" rx="14" fill="#F87171"/>
  <text x="1230" y="28" font-family="system-ui, sans-serif" font-size="12" font-weight="600" fill="white" text-anchor="middle">+ Pacijent</text>

  <!-- Bell icon -->
  <circle cx="1310" cy="24" r="10" fill="none" stroke="#94A3B8" stroke-width="1.5"/>
  <path d="M1310 18v1.5c0 2.2 1.8 4 4 4s4-1.8 4-4V18" fill="none" stroke="#94A3B8" stroke-width="1.5"/>
  <circle cx="1314" cy="20" r="2" fill="#F87171"/>

  <!-- Profile -->
  <image href="https://images.unsplash.com/photo-1612349317150-e413f6a5b16d?w=200&amp;h=200&amp;fit=crop&amp;crop=face" x="1330" y="14" width="20" height="20" rx="10" preserveAspectRatio="xMidYMid slice"/>
  <text x="1360" y="26" font-family="system-ui, sans-serif" font-size="11" font-weight="600" fill="#0F172A">Dr. Marko Petrović</text>
  <text x="1360" y="38" font-family="system-ui, sans-serif" font-size="9" fill="#94A3B8">Stomatolog</text>

  <!-- Main content area -->
  <g transform="translate(24, 64)">

    <!-- Title -->
    <text x="0" y="24" font-family="system-ui, sans-serif" font-size="18" font-weight="700" fill="#0F172A">Pregled klinike</text>

    <!-- KPI Cards -->
    <g transform="translate(0, 36)">
      <!-- Pacijenti danas -->
      <rect x="0" y="0" width="280" height="72" rx="8" fill="white" filter="url(#shadow)"/>
      <circle cx="44" cy="36" r="20" fill="#FEF2F2"/>
      <g transform="translate(24, 26)">
        <path d="M16 21v-2a4 4 0 0 0-4-4H8a4 4 0 0 0-4 4v2" fill="none" stroke="#F87171" stroke-width="2"/>
        <circle cx="10" cy="7" r="4" fill="none" stroke="#F87171" stroke-width="2"/>
        <circle cx="22" cy="7" r="4" fill="none" stroke="#F87171" stroke-width="2"/>
      </g>
      <text x="72" y="32" font-family="system-ui, sans-serif" font-size="12" fill="#64748B">Pacijenti danas</text>
      <text x="72" y="52" font-family="system-ui, sans-serif" font-size="18" font-weight="700" fill="#0F172A">8</text>

      <!-- Ukupno pacijenata -->
      <rect x="296" y="0" width="280" height="72" rx="8" fill="white" filter="url(#shadow)"/>
      <rect x="340" y="16" width="24" height="24" rx="4" fill="#EFF6FF"/>
      <g transform="translate(346, 22)">
        <path d="M16 21v-2a4 4 0 0 0-4-4H8a4 4 0 0 0-4 4v2" fill="none" stroke="#3B82F6" stroke-width="1.5"/>
        <circle cx="10" cy="7" r="3.5" fill="none" stroke="#3B82F6" stroke-width="1.5"/>
        <circle cx="22" cy="7" r="3.5" fill="none" stroke="#3B82F6" stroke-width="1.5"/>
      </g>
      <text x="376" y="32" font-family="system-ui, sans-serif" font-size="12" fill="#64748B">Ukupno pacijenata</text>
      <text x="376" y="52" font-family="system-ui, sans-serif" font-size="18" font-weight="700" fill="#0F172A">364</text>

      <!-- Doktori -->
      <rect x="592" y="0" width="280" height="72" rx="8" fill="white" filter="url(#shadow)"/>
      <rect x="636" y="16" width="24" height="24" rx="4" fill="#F0FDFA"/>
      <g transform="translate(650, 26)">
        <path d="M4 2v2a2 2 0 0 0 2 2h4a2 2 0 0 0 2-2V2M4 14v2a2 2 0 0 0 2 2h4a2 2 0 0 0 2-2v-2" fill="none" stroke="#14B8A6" stroke-width="1.5"/>
        <path d="M2 8h12" fill="none" stroke="#14B8A6" stroke-width="1.5"/>
      </g>
      <text x="672" y="32" font-family="system-ui, sans-serif" font-size="12" fill="#64748B">Doktori</text>
      <text x="672" y="52" font-family="system-ui, sans-serif" font-size="18" font-weight="700" fill="#0F172A">6</text>
    </g>

    <!-- Chart Card -->
    <g transform="translate(0, 124)">
      <rect x="0" y="0" width="872" height="220" rx="8" fill="white" filter="url(#shadow)"/>
      <text x="16" y="28" font-family="system-ui, sans-serif" font-size="14" font-weight="600" fill="#0F172A">Statistika termina</text>
      <text x="720" y="28" font-family="system-ui, sans-serif" font-size="11" fill="#64748B">Oktobar 2021</text>
      <text x="800" y="28" font-family="system-ui, sans-serif" font-size="10" fill="#64748B">Nedelja</text>

      <!-- Chart area (viewBox 0 0 260 100 scaled to ~800x140) -->
      <g transform="translate(40, 50) scale(3.08, 1.4)">
        <line x1="173.3" y1="8" x2="173.3" y2="75" stroke="rgba(15,23,42,0.22)" stroke-width="0.6" stroke-dasharray="2,1.5"/>
        <!-- Grid -->
        <line x1="24" y1="21.4" x2="248" y2="21.4" stroke="rgba(15,23,42,0.06)" stroke-width="0.5"/>
        <line x1="24" y1="34.8" x2="248" y2="34.8" stroke="rgba(15,23,42,0.06)" stroke-width="0.5"/>
        <line x1="24" y1="48.2" x2="248" y2="48.2" stroke="rgba(15,23,42,0.06)" stroke-width="0.5"/>
        <line x1="24" y1="61.6" x2="248" y2="61.6" stroke="rgba(15,23,42,0.06)" stroke-width="0.5"/>
        <line x1="24" y1="75" x2="248" y2="75" stroke="rgba(15,23,42,0.06)" stroke-width="0.5"/>
        <!-- Y labels -->
        <text x="20" y="22.9" font-size="5" fill="rgba(15,23,42,0.28)" text-anchor="end">20</text>
        <text x="20" y="36.3" font-size="5" fill="rgba(15,23,42,0.28)" text-anchor="end">15</text>
        <text x="20" y="49.7" font-size="5" fill="rgba(15,23,42,0.28)" text-anchor="end">10</text>
        <text x="20" y="63.1" font-size="5" fill="rgba(15,23,42,0.28)" text-anchor="end">5</text>
        <text x="20" y="76.5" font-size="5" fill="rgba(15,23,42,0.28)" text-anchor="end">0</text>
        <!-- Area fill -->
        <path d="M 24 61.6 C 42.7 61.6, 42.7 72.3, 61.3 72.3 C 80 72.3, 80 53.6, 98.7 53.6 C 117.3 53.6, 117.3 21.4, 136 21.4 C 154.7 21.4, 154.7 13.4, 173.3 13.4 C 192 13.4, 192 26.8, 210.7 26.8 C 229.3 26.8, 229.3 34.8, 248 34.8 L 248 75 L 24 75 Z" fill="url(#chartGrad)"/>
        <!-- Line -->
        <path d="M 24 61.6 C 42.7 61.6, 42.7 72.3, 61.3 72.3 C 80 72.3, 80 53.6, 98.7 53.6 C 117.3 53.6, 117.3 21.4, 136 21.4 C 154.7 21.4, 154.7 13.4, 173.3 13.4 C 192 13.4, 192 26.8, 210.7 26.8 C 229.3 26.8, 229.3 34.8, 248 34.8" fill="none" stroke="#2563EB" stroke-width="2" stroke-linecap="round" stroke-linejoin="round"/>
        <!-- Dots -->
        <circle cx="24" cy="61.6" r="2.2" fill="white" stroke="#2563EB" stroke-width="1.2"/>
        <circle cx="61.3" cy="72.3" r="2.2" fill="white" stroke="#2563EB" stroke-width="1.2"/>
        <circle cx="98.7" cy="53.6" r="2.2" fill="white" stroke="#2563EB" stroke-width="1.2"/>
        <circle cx="136" cy="21.4" r="2.2" fill="white" stroke="#2563EB" stroke-width="1.2"/>
        <circle cx="173.3" cy="13.4" r="3.5" fill="#F59E0B" stroke="#F59E0B"/>
        <circle cx="210.7" cy="26.8" r="2.2" fill="white" stroke="#2563EB" stroke-width="1.2"/>
        <circle cx="248" cy="34.8" r="2.2" fill="white" stroke="#2563EB" stroke-width="1.2"/>
        <!-- Tooltip -->
        <rect x="152" y="2" width="42" height="9" rx="3" fill="#1B2B6B"/>
        <text x="173" y="8.5" font-size="5.5" font-weight="bold" fill="white" text-anchor="middle">41 termin</text>
        <!-- X labels -->
        <text x="24" y="86" font-size="5" fill="rgba(15,23,42,0.28)" text-anchor="middle">Pon</text>
        <text x="61.3" y="86" font-size="5" fill="rgba(15,23,42,0.28)" text-anchor="middle">Uto</text>
        <text x="98.7" y="86" font-size="5" fill="rgba(15,23,42,0.28)" text-anchor="middle">Sre</text>
        <text x="136" y="86" font-size="5" fill="rgba(15,23,42,0.28)" text-anchor="middle">et</text>
        <text x="173.3" y="86" font-size="5" fill="rgba(15,23,42,0.28)" text-anchor="middle">Pet</text>
        <text x="210.7" y="86" font-size="5" fill="rgba(15,23,42,0.28)" text-anchor="middle">Sub</text>
        <text x="248" y="86" font-size="5" fill="rgba(15,23,42,0.28)" text-anchor="middle">Ned</text>
      </g>
    </g>

    <!-- Patient Table -->
    <g transform="translate(0, 356)">
      <rect x="0" y="0" width="872" height="220" rx="8" fill="white" filter="url(#shadow)"/>
      <text x="16" y="28" font-family="system-ui, sans-serif" font-size="14" font-weight="600" fill="#0F172A">Poslednji pacijenti</text>
      <line x1="16" y1="40" x2="856" y2="40" stroke="#F1F5F9" stroke-width="1"/>
      <text x="24" y="56" font-family="system-ui, sans-serif" font-size="10" font-weight="600" fill="#94A3B8">BR.</text>
      <text x="60" y="56" font-family="system-ui, sans-serif" font-size="10" font-weight="600" fill="#94A3B8">DATUM</text>
      <text x="120" y="56" font-family="system-ui, sans-serif" font-size="10" font-weight="600" fill="#94A3B8">IME</text>
      <text x="380" y="56" font-family="system-ui, sans-serif" font-size="10" font-weight="600" fill="#94A3B8">LAN.</text>
      <text x="440" y="56" font-family="system-ui, sans-serif" font-size="10" font-weight="600" fill="#94A3B8">TERAPIJA</text>
      <!-- Row 1 -->
      <line x1="16" y1="76" x2="856" y2="76" stroke="#F1F5F9" stroke-width="1"/>
      <text x="24" y="92" font-family="system-ui, sans-serif" font-size="11" fill="#0F172A">96</text>
      <text x="60" y="92" font-family="system-ui, sans-serif" font-size="11" fill="#64748B">23.10.</text>
      <text x="120" y="92" font-family="system-ui, sans-serif" font-size="11" font-weight="500" fill="#0F172A">Ana Petrovi</text>
      <rect x="380" y="82" width="36" height="16" rx="8" fill="#F87171"/>
      <text x="398" y="94" font-family="system-ui, sans-serif" font-size="9" font-weight="500" fill="white" text-anchor="middle">lan</text>
      <text x="440" y="92" font-family="system-ui, sans-serif" font-size="11" fill="#64748B">Endodoncija</text>
      <!-- Row 2 -->
      <line x1="16" y1="108" x2="856" y2="108" stroke="#F1F5F9" stroke-width="1"/>
      <text x="24" y="124" font-family="system-ui, sans-serif" font-size="11" fill="#0F172A">95</text>
      <text x="60" y="124" font-family="system-ui, sans-serif" font-size="11" fill="#64748B">23.10.</text>
      <text x="120" y="124" font-family="system-ui, sans-serif" font-size="11" font-weight="500" fill="#0F172A">Marko Jovi</text>
      <text x="398" y="124" font-family="system-ui, sans-serif" font-size="11" fill="#CBD5E1" text-anchor="middle"></text>
      <text x="440" y="124" font-family="system-ui, sans-serif" font-size="11" fill="#64748B">Konsultacija</text>
      <!-- Row 3 -->
      <line x1="16" y1="140" x2="856" y2="140" stroke="#F1F5F9" stroke-width="1"/>
      <text x="24" y="156" font-family="system-ui, sans-serif" font-size="11" fill="#0F172A">94</text>
      <text x="60" y="156" font-family="system-ui, sans-serif" font-size="11" fill="#64748B">23.10.</text>
      <text x="120" y="156" font-family="system-ui, sans-serif" font-size="11" font-weight="500" fill="#0F172A">Mila Savi</text>
      <rect x="380" y="146" width="36" height="16" rx="8" fill="#F87171"/>
      <text x="398" y="158" font-family="system-ui, sans-serif" font-size="9" font-weight="500" fill="white" text-anchor="middle">lan</text>
      <text x="440" y="156" font-family="system-ui, sans-serif" font-size="11" fill="#64748B">Endodoncija</text>
    </g>

    <!-- Right sidebar - Calendar + Appointments -->
    <g transform="translate(896, 36)">
      <rect x="0" y="0" width="480" height="540" rx="8" fill="white" filter="url(#shadow)"/>
      <!-- Calendar header -->
      <text x="16" y="32" font-family="system-ui, sans-serif" font-size="14" font-weight="700" fill="#0F172A">Februar 2026</text>
      <rect x="380" y="18" width="24" height="24" rx="4" fill="#F8FAFC"/>
      <rect x="412" y="18" width="24" height="24" rx="4" fill="#F8FAFC"/>
      <!-- Week days -->
      <text x="30" y="58" font-family="system-ui, sans-serif" font-size="10" font-weight="600" fill="#94A3B8" text-anchor="middle">P</text>
      <text x="98" y="58" font-family="system-ui, sans-serif" font-size="10" font-weight="600" fill="#94A3B8" text-anchor="middle">U</text>
      <text x="166" y="58" font-family="system-ui, sans-serif" font-size="10" font-weight="600" fill="#94A3B8" text-anchor="middle">S</text>
      <text x="234" y="58" font-family="system-ui, sans-serif" font-size="10" font-weight="600" fill="#0F172A" text-anchor="middle"></text>
      <text x="302" y="58" font-family="system-ui, sans-serif" font-size="10" font-weight="600" fill="#94A3B8" text-anchor="middle">P</text>
      <text x="370" y="58" font-family="system-ui, sans-serif" font-size="10" font-weight="600" fill="#94A3B8" text-anchor="middle">S</text>
      <text x="438" y="58" font-family="system-ui, sans-serif" font-size="10" font-weight="600" fill="#94A3B8" text-anchor="middle">N</text>
      <!-- Calendar dates -->
      <rect x="14" y="68" width="56" height="32" rx="6" fill="none"/>
      <text x="42" y="90" font-family="system-ui, sans-serif" font-size="12" font-weight="500" fill="#334155" text-anchor="middle">17</text>
      <rect x="82" y="68" width="56" height="32" rx="6" fill="none"/>
      <text x="110" y="90" font-family="system-ui, sans-serif" font-size="12" font-weight="500" fill="#334155" text-anchor="middle">18</text>
      <rect x="150" y="68" width="56" height="32" rx="6" fill="none"/>
      <text x="178" y="90" font-family="system-ui, sans-serif" font-size="12" font-weight="500" fill="#334155" text-anchor="middle">19</text>
      <rect x="218" y="68" width="56" height="32" rx="6" fill="#1B2B6B"/>
      <text x="246" y="90" font-family="system-ui, sans-serif" font-size="12" font-weight="700" fill="white" text-anchor="middle">21</text>
      <rect x="286" y="68" width="56" height="32" rx="6" fill="none"/>
      <text x="314" y="90" font-family="system-ui, sans-serif" font-size="12" font-weight="500" fill="#334155" text-anchor="middle">22</text>
      <rect x="354" y="68" width="56" height="32" rx="6" fill="none"/>
      <text x="382" y="90" font-family="system-ui, sans-serif" font-size="12" font-weight="500" fill="#334155" text-anchor="middle">23</text>
      <rect x="422" y="68" width="56" height="32" rx="6" fill="none"/>
      <text x="450" y="90" font-family="system-ui, sans-serif" font-size="12" font-weight="500" fill="#334155" text-anchor="middle">24</text>

      <!-- Naredni termini -->
      <line x1="16" y1="120" x2="464" y2="120" stroke="#F1F5F9" stroke-width="1"/>
      <text x="16" y="148" font-family="system-ui, sans-serif" font-size="14" font-weight="700" fill="#0F172A">Naredni termini</text>
      <text x="380" y="148" font-family="system-ui, sans-serif" font-size="11" font-weight="500" fill="#2563EB">Vidi sve</text>

      <!-- Danas, 21. feb -->
      <text x="16" y="178" font-family="system-ui, sans-serif" font-size="10" font-weight="600" fill="#94A3B8">DANAS, 21. FEB</text>
      <rect x="16" y="188" width="448" height="56" rx="8" fill="#F8FAFC"/>
      <text x="40" y="218" font-family="system-ui, sans-serif" font-size="12" fill="#64748B">12:00</text>
      <image href="https://images.unsplash.com/photo-1612349317150-e413f6a5b16d?w=200&amp;h=200&amp;fit=crop" x="72" y="198" width="32" height="32" rx="16" preserveAspectRatio="xMidYMid slice"/>
      <text x="112" y="218" font-family="system-ui, sans-serif" font-size="13" font-weight="600" fill="#0F172A">Sanja Simi</text>
      <text x="112" y="232" font-family="system-ui, sans-serif" font-size="11" fill="#64748B">Kontrola</text>

      <rect x="16" y="252" width="448" height="56" rx="8" fill="#F8FAFC"/>
      <text x="40" y="282" font-family="system-ui, sans-serif" font-size="12" fill="#64748B">14:00</text>
      <image href="https://images.unsplash.com/photo-1612349317150-e413f6a5b16d?w=200&amp;h=200&amp;fit=crop" x="72" y="262" width="32" height="32" rx="16" preserveAspectRatio="xMidYMid slice"/>
      <text x="112" y="282" font-family="system-ui, sans-serif" font-size="13" font-weight="600" fill="#0F172A">Ana Petrovi</text>
      <rect x="200" y="270" width="36" height="18" rx="9" fill="#F87171"/>
      <text x="218" y="283" font-family="system-ui, sans-serif" font-size="9" font-weight="500" fill="white" text-anchor="middle">lan</text>
      <text x="112" y="296" font-family="system-ui, sans-serif" font-size="11" fill="#64748B">Plomba</text>

      <!-- Sutra, 23. feb -->
      <text x="16" y="332" font-family="system-ui, sans-serif" font-size="10" font-weight="600" fill="#94A3B8">SUTRA, 23. FEB</text>
      <rect x="16" y="342" width="448" height="56" rx="8" fill="#1B2B6B"/>
      <text x="40" y="372" font-family="system-ui, sans-serif" font-size="12" fill="rgba(255,255,255,0.6)">11:00</text>
      <image href="https://images.unsplash.com/photo-1612349317150-e413f6a5b16d?w=200&amp;h=200&amp;fit=crop" x="72" y="352" width="32" height="32" rx="16" preserveAspectRatio="xMidYMid slice"/>
      <text x="112" y="372" font-family="system-ui, sans-serif" font-size="13" font-weight="600" fill="white">Jelena Markovi</text>
      <rect x="200" y="360" width="36" height="18" rx="9" fill="rgba(248,113,113,0.85)"/>
      <text x="218" y="373" font-family="system-ui, sans-serif" font-size="9" font-weight="500" fill="white" text-anchor="middle">lan</text>
      <text x="112" y="386" font-family="system-ui, sans-serif" font-size="11" fill="rgba(255,255,255,0.6)">Izbeljivanje</text>

      <rect x="16" y="406" width="448" height="56" rx="8" fill="#F8FAFC"/>
      <text x="40" y="436" font-family="system-ui, sans-serif" font-size="12" fill="#64748B">12:30</text>
      <image href="https://images.unsplash.com/photo-1612349317150-e413f6a5b16d?w=200&amp;h=200&amp;fit=crop" x="72" y="416" width="32" height="32" rx="16" preserveAspectRatio="xMidYMid slice"/>
      <text x="112" y="436" font-family="system-ui, sans-serif" font-size="13" font-weight="600" fill="#0F172A">Stefan Ili</text>
      <text x="112" y="450" font-family="system-ui, sans-serif" font-size="11" fill="#64748B">iaenje</text>

      <rect x="16" y="470" width="448" height="56" rx="8" fill="#F8FAFC"/>
      <text x="40" y="500" font-family="system-ui, sans-serif" font-size="12" fill="#64748B">13:45</text>
      <image href="https://images.unsplash.com/photo-1612349317150-e413f6a5b16d?w=200&amp;h=200&amp;fit=crop" x="72" y="480" width="32" height="32" rx="16" preserveAspectRatio="xMidYMid slice"/>
      <text x="112" y="500" font-family="system-ui, sans-serif" font-size="13" font-weight="600" fill="#0F172A">Marko Ili</text>
      <text x="112" y="514" font-family="system-ui, sans-serif" font-size="11" fill="#64748B">Konsultacija</text>
    </g>

  </g>
</svg>
