<svg xmlns="http://www.w3.org/2000/svg" viewBox="0 0 260 540" width="260" height="540">
  <defs>
    <clipPath id="screenClip">
      <rect x="0" y="0" width="260" height="540" rx="32" ry="32"/>
    </clipPath>
  </defs>
  <g clip-path="url(#screenClip)">
    <rect x="0" y="0" width="260" height="540" rx="32" ry="32" fill="#ffffff"/>
    <g font-family="system-ui,-apple-system,sans-serif" font-size="10" font-weight="600" fill="#0f172a">
      <text x="18" y="42">9:41</text>
      <text x="242" y="42" text-anchor="end">100 %</text>
    </g>
    <line x1="0" y1="60" x2="260" y2="60" stroke="rgba(226,232,240,0.6)" stroke-width="1"/>
    <path d="M 18 78 L 12 72 L 18 66" fill="none" stroke="#2563eb" stroke-width="2.5" stroke-linecap="round" stroke-linejoin="round"/>
    <text x="130" y="78" font-family="system-ui,-apple-system,sans-serif" font-size="12" font-weight="600" fill="#0f172a" text-anchor="middle">Odontoa</text>
    <circle cx="248" cy="74" r="1.5" fill="#64748b"/>
    <circle cx="248" cy="78" r="1.5" fill="#64748b"/>
    <circle cx="248" cy="82" r="1.5" fill="#64748b"/>
    <rect x="8" y="95" width="218" height="88" rx="18" ry="18" fill="#E9E9EB"/>
    <text x="20" y="115" font-family="system-ui,-apple-system,sans-serif" font-size="11" fill="#0f172a" font-weight="400">
      <tspan x="20" dy="0">Podsetnik: termin 15. dec u 14:30</tspan>
      <tspan x="20" dy="16">(Dr. Ana Nikoli&#263;). Adresa: Knez</tspan>
      <tspan x="20" dy="16">Mihailova 15. Molimo do&#273;ite 10 min</tspan>
      <tspan x="20" dy="16">ranije.</tspan>
    </text>
    <rect x="120" y="195" width="116" height="32" rx="16" ry="16" fill="#007AFF"/>
    <text x="178" y="215" font-family="system-ui,-apple-system,sans-serif" font-size="11" fill="white" text-anchor="middle">Hvala, dolazim!</text>
    <rect x="0" y="488" width="260" height="52" fill="#ffffff"/>
    <line x1="0" y1="488" x2="260" y2="488" stroke="rgba(226,232,240,0.7)" stroke-width="1"/>
    <circle cx="22" cy="514" r="12" fill="none" stroke="#cbd5e1" stroke-width="1.2"/>
    <text x="22" y="518" font-family="system-ui,sans-serif" font-size="14" fill="#94a3b8" text-anchor="middle">+</text>
    <rect x="42" y="502" width="176" height="24" rx="12" ry="12" fill="#ffffff" stroke="#cbd5e1" stroke-width="1"/>
    <text x="130" y="518" font-family="system-ui,-apple-system,sans-serif" font-size="10" fill="#94a3b8" text-anchor="middle">iMessage</text>
  </g>
</svg>
