<svg preserveAspectRatio="none" width="100%" height="100%" overflow="visible" style="display: block;" viewBox="0 0 32 32" fill="none" xmlns="http://www.w3.org/2000/svg">
<g id="OsvUbZnNIMOjzwZUq6703omObM.svg">
<path id="Vector" d="M16 27C14.4972 26.9999 13.029 26.5483 11.7859 25.7037C10.5428 24.8592 9.5821 23.6606 9.02835 22.2635C8.47459 20.8664 8.35333 19.3352 8.68028 17.8683C9.00724 16.4015 9.76733 15.0667 10.862 14.037C12.204 12.774 15.5 10.5 15 5.5C21 9.5 24 13.5 18 19.5C19 19.5 20.5 19.5 23 17.03C23.27 17.803 23.5 18.634 23.5 19.5C23.5 21.4891 22.7098 23.3968 21.3033 24.8033C19.8968 26.2098 17.9891 27 16 27Z" fill="var(--fill-0, #6E51E0)"/>
<path id="Vector_2" d="M16 27C14.4972 26.9999 13.029 26.5483 11.7859 25.7037C10.5428 24.8592 9.5821 23.6606 9.02835 22.2635C8.47459 20.8664 8.35333 19.3352 8.68028 17.8683C9.00724 16.4015 9.76733 15.0667 10.862 14.037C12.204 12.774 15.5 10.5 15 5.5C21 9.5 24 13.5 18 19.5C19 19.5 20.5 19.5 23 17.03C23.27 17.803 23.5 18.634 23.5 19.5C23.5 21.4891 22.7098 23.3968 21.3033 24.8033C19.8968 26.2098 17.9891 27 16 27Z" fill="url(#paint0_linear_24022_114)" fill-opacity="0.24"/>
</g>
<defs>
<linearGradient id="paint0_linear_24022_114" x1="16" y1="5.5" x2="16" y2="27" gradientUnits="userSpaceOnUse">
<stop stop-color="white"/>
<stop offset="1" stop-color="white" stop-opacity="0"/>
</linearGradient>
</defs>
</svg>
