<svg preserveAspectRatio="none" width="100%" height="100%" overflow="visible" style="display: block;" viewBox="0 0 32 32" fill="none" xmlns="http://www.w3.org/2000/svg">
<g id="YXaVNoITP2D8v6rzbpueb6Pq7s.svg">
<path id="Vector" d="M15 6.05V17H25.95C25.449 22.053 21.185 26 16 26C10.477 26 6 21.523 6 16C6 10.815 9.947 6.551 15 6.05ZM17 4.543C22.553 5.02 26.979 9.447 27.457 15H17V4.543Z" fill="var(--fill-0, #6E51E0)"/>
<path id="Vector_2" d="M15 6.05V17H25.95C25.449 22.053 21.185 26 16 26C10.477 26 6 21.523 6 16C6 10.815 9.947 6.551 15 6.05ZM17 4.543C22.553 5.02 26.979 9.447 27.457 15H17V4.543Z" fill="url(#paint0_linear_24022_122)" fill-opacity="0.24"/>
</g>
<defs>
<linearGradient id="paint0_linear_24022_122" x1="16.729" y1="4.543" x2="16.729" y2="26" gradientUnits="userSpaceOnUse">
<stop stop-color="white"/>
<stop offset="1" stop-color="white" stop-opacity="0"/>
</linearGradient>
</defs>
</svg>
