<svg preserveAspectRatio="none" width="100%" height="100%" overflow="visible" style="display: block;" viewBox="0 0 32 32" fill="none" xmlns="http://www.w3.org/2000/svg">
<g id="AZ1AGSFwmZ1BiwvzcuyNnnVaRI.svg">
<path id="Vector" d="M12.498 24H19.502C18.8404 25.5823 17.5823 26.8404 16 27.502C14.4177 26.8404 13.1596 25.5823 12.498 24ZM22 18.805L24 21.073V23H8V21.073L10 18.805V13C10 9.517 12.504 6.553 16 5.455C19.496 6.553 22 9.517 22 13V18.805ZM16 15C16.5304 15 17.0391 14.7893 17.4142 14.4142C17.7893 14.0391 18 13.5304 18 13C18 12.4696 17.7893 11.9609 17.4142 11.5858C17.0391 11.2107 16.5304 11 16 11C15.4696 11 14.9609 11.2107 14.5858 11.5858C14.2107 11.9609 14 12.4696 14 13C14 13.5304 14.2107 14.0391 14.5858 14.4142C14.9609 14.7893 15.4696 15 16 15Z" fill="var(--fill-0, #6E51E0)"/>
<path id="Vector_2" d="M12.498 24H19.502C18.8404 25.5823 17.5823 26.8404 16 27.502C14.4177 26.8404 13.1596 25.5823 12.498 24ZM22 18.805L24 21.073V23H8V21.073L10 18.805V13C10 9.517 12.504 6.553 16 5.455C19.496 6.553 22 9.517 22 13V18.805ZM16 15C16.5304 15 17.0391 14.7893 17.4142 14.4142C17.7893 14.0391 18 13.5304 18 13C18 12.4696 17.7893 11.9609 17.4142 11.5858C17.0391 11.2107 16.5304 11 16 11C15.4696 11 14.9609 11.2107 14.5858 11.5858C14.2107 11.9609 14 12.4696 14 13C14 13.5304 14.2107 14.0391 14.5858 14.4142C14.9609 14.7893 15.4696 15 16 15Z" fill="url(#paint0_linear_24022_118)" fill-opacity="0.24"/>
</g>
<defs>
<linearGradient id="paint0_linear_24022_118" x1="16" y1="5.455" x2="16" y2="27.502" gradientUnits="userSpaceOnUse">
<stop stop-color="white"/>
<stop offset="1" stop-color="white" stop-opacity="0"/>
</linearGradient>
</defs>
</svg>
