<svg width="110" height="18" viewBox="0 0 110 18" fill="none" xmlns="http://www.w3.org/2000/svg">
<g clip-path="url(#clip0_22001_165)">
<mask id="mask0_22001_165" style="mask-type:luminance" maskUnits="userSpaceOnUse" x="0" y="0" width="110" height="18">
<path d="M110 0H0V17.95H110V0Z" fill="white"/>
</mask>
<g mask="url(#mask0_22001_165)">
<path fill-rule="evenodd" clip-rule="evenodd" d="M22.4528 0.0143615L0.144833 8.89942C0.100057 8.91804 0.0626788 8.95094 0.0385085 8.99304C0.0131795 9.03107 -0.000225905 9.07582 1.1685e-05 9.12154C-0.000453344 9.16728 0.0129717 9.2121 0.0385085 9.25005C0.0641777 9.2887 0.10139 9.31826 0.144833 9.33449L6.76811 11.7265C6.80356 11.7407 6.84219 11.7451 6.87994 11.7393C6.91698 11.7335 6.95213 11.719 6.9826 11.6971L19.5472 2.52934C19.5504 2.52798 19.5538 2.52728 19.5573 2.52728C19.5608 2.52728 19.5642 2.52798 19.5674 2.52934C19.5744 2.53121 19.5808 2.53503 19.5857 2.54036C19.587 2.54326 19.5875 2.54638 19.5875 2.54953C19.5875 2.55269 19.587 2.55581 19.5857 2.55871C19.5883 2.56521 19.5883 2.57242 19.5857 2.57891L8.4638 12.2662C8.43816 12.2886 8.41754 12.316 8.40331 12.347C8.38999 12.3782 8.38374 12.4121 8.38497 12.4461V17.6046C8.38365 17.6512 8.39783 17.6971 8.42531 17.7349C8.4528 17.7733 8.49109 17.8027 8.5353 17.8193C8.57956 17.8351 8.62764 17.8365 8.67271 17.8232C8.71779 17.8101 8.75758 17.783 8.78644 17.7459L11.9964 13.7844C12.0263 13.7481 12.0666 13.7219 12.1118 13.7091C12.1571 13.6944 12.2058 13.6944 12.2512 13.7091L16.3429 15.1942C16.3968 15.2162 16.4575 15.2162 16.5114 15.1942C16.5647 15.1698 16.607 15.1267 16.6307 15.073L22.7498 0.311754C22.7662 0.270977 22.77 0.226225 22.7608 0.183251C22.753 0.139348 22.7319 0.0989292 22.7003 0.0675984C22.6697 0.0352563 22.63 0.0128845 22.5866 0.00339032C22.543 -0.00610379 22.4978 -0.00228112 22.4565 0.0143615" fill="#060B13"/>
<path d="M29.5029 1.80457H27.4863L27.5157 14.1041H29.5322L29.5029 1.80457Z" fill="#060B13"/>
<path d="M35.8511 5.25391C34.832 5.25391 33.8989 5.62105 33.3141 6.35535V5.43748H31.4131L31.4351 14.1023H33.3361L33.3214 8.36551C33.4987 7.95151 33.7951 7.5998 34.173 7.35523C34.5507 7.11067 34.9926 6.98434 35.4423 6.99236C36.6522 6.99236 37.3452 7.85332 37.3489 9.2228L37.3599 14.1023H39.2609L39.2481 8.9199C39.2481 6.68028 37.9245 5.26124 35.8511 5.26675" fill="#060B13"/>
<path d="M47.1147 5.40077L44.4823 11.4734L41.8406 5.41546H39.7324L43.6592 14.071H45.3365L49.2357 5.39526L47.1147 5.40077Z" fill="#060B13"/>
<path d="M53.9541 5.21169C52.8462 5.23007 51.7847 5.66002 50.9756 6.41809C50.1666 7.17615 49.6678 8.20824 49.576 9.31395C49.484 10.4197 49.8058 11.5201 50.4786 12.4017C51.1515 13.2831 52.1274 13.8828 53.217 14.0843C54.3066 14.2856 55.432 14.0744 56.3748 13.4916C57.3176 12.9088 58.0105 11.9959 58.3189 10.9302C58.6273 9.86448 58.5293 8.72206 58.0438 7.72469C57.5584 6.72733 56.7201 5.94619 55.6918 5.53295C55.1399 5.31043 54.549 5.20119 53.9541 5.21169ZM53.9706 12.4556C52.4344 12.4556 51.3583 11.266 51.3564 9.72397C51.3546 8.18194 52.416 6.9832 53.9577 6.97035C55.4995 6.9575 56.5535 8.16175 56.5571 9.70379C56.5608 11.2458 55.492 12.4427 53.9761 12.4464L53.9706 12.4556Z" fill="#060B13"/>
<path d="M61.7448 5.35858H59.8438L59.8675 14.0233H61.7668L61.7448 5.35858Z" fill="#060B13"/>
<path d="M61.7448 2.01746H59.8438V3.77641H61.7448V2.01746Z" fill="#060B13"/>
<path d="M67.8053 6.94465C68.3046 6.94118 68.7942 7.08272 69.2149 7.35217C69.6356 7.62161 69.9693 8.00741 70.1755 8.46282L71.8254 7.55963C71.439 6.82753 70.8575 6.21696 70.1457 5.79568C69.4337 5.37442 68.6191 5.15894 67.7925 5.17314C65.2076 5.17682 63.2461 7.12823 63.2461 9.69646C63.2461 12.2647 65.2351 14.1958 67.8291 14.1923C68.6556 14.2037 69.4692 13.9852 70.179 13.5609C70.8888 13.1366 71.467 12.5232 71.8492 11.7892L70.1883 10.886C69.9851 11.3431 69.6535 11.7312 69.234 12.003C68.8144 12.2749 68.3251 12.4187 67.8255 12.417C66.2892 12.417 65.1966 11.2275 65.193 9.68544C65.1893 8.1434 66.2764 6.94465 67.8145 6.93181" fill="#060B13"/>
<path d="M77.3434 5.15106C74.7165 5.15106 72.8301 7.12267 72.8448 9.67069C72.8448 12.2976 74.7403 14.172 77.3618 14.1665C79.1675 14.1665 80.5239 13.3771 81.2957 12.1471L79.8513 11.1118C79.404 11.8736 78.5882 12.4317 77.3838 12.4353C75.9502 12.4353 74.8063 11.5046 74.7165 10.0837L81.4992 10.0672C81.5157 9.79186 81.5157 9.63397 81.5157 9.44306C81.5157 6.65638 79.6038 5.1529 77.3416 5.15657L77.3434 5.15106ZM74.7953 8.69407C75.0519 7.40904 76.1702 6.76469 77.2793 6.76469C78.3884 6.76469 79.3875 7.43474 79.5983 8.68122L74.7953 8.69407Z" fill="#060B13"/>
<path d="M105.5 5.08321H105.432C104.841 5.07856 104.255 5.19166 103.708 5.4159C103.161 5.64015 102.664 5.97107 102.246 6.38942C101.827 6.80776 101.497 7.30518 101.272 7.85276C101.048 8.40032 100.934 8.9871 100.939 9.57896V9.60283C100.935 10.1961 101.049 10.7842 101.275 11.3326C101.501 11.8811 101.834 12.379 102.254 12.7972C102.674 13.2154 103.173 13.5456 103.722 13.7684C104.272 13.9912 104.86 14.1023 105.452 14.0949H105.485C106.077 14.1032 106.665 13.9927 107.213 13.7701C107.762 13.5475 108.261 13.2173 108.68 12.7989C109.099 12.3809 109.431 11.8834 109.657 11.3357C109.882 10.788 109.996 10.2008 109.993 9.60833V9.57896C109.996 8.98797 109.882 8.40219 109.658 7.85572C109.433 7.30923 109.102 6.81296 108.684 6.39577C108.266 5.9778 107.77 5.64716 107.224 5.42308C106.677 5.19901 106.092 5.08597 105.501 5.09054L105.5 5.08321ZM105.478 12.3344C103.939 12.3344 102.867 11.1449 102.863 9.60467C102.86 8.06447 103.928 6.86205 105.463 6.85103C106.997 6.84002 108.059 8.04243 108.062 9.58447C108.066 11.1265 106.997 12.3234 105.478 12.327V12.3344Z" fill="#060B13"/>
<path d="M97.6477 5.27595V6.07266C97.0409 5.45035 96.1408 5.10705 95.1051 5.10889C92.6009 5.10889 90.7897 7.04011 90.7714 9.47064C90.7594 10.0457 90.8637 10.6172 91.0778 11.1509C91.2919 11.6847 91.6116 12.1695 92.0176 12.5763C92.4236 12.9832 92.9075 13.3037 93.4402 13.5187C93.973 13.7335 94.5437 13.8384 95.1179 13.8269C96.1573 13.8269 97.0538 13.4598 97.6569 12.8154V13.8416C97.6569 15.1908 96.9236 15.9123 95.93 16.1326C93.4552 16.5768 91.9171 15.8296 91.9171 15.8296L91.3103 17.3865C92.1939 17.9372 94.9346 18.095 96.2068 17.8141C98.04 17.491 99.5652 16.2905 99.5597 13.8581L99.5432 5.27411L97.6477 5.27595ZM97.6605 10.8566C97.4151 11.2447 97.0723 11.5614 96.6663 11.775C96.2603 11.9886 95.8053 12.0916 95.347 12.0737C93.8457 12.0737 92.7531 10.9539 92.7347 9.46514C92.7254 9.11891 92.7878 8.7745 92.9181 8.45364C93.0448 8.13207 93.2357 7.83975 93.479 7.59451C93.7224 7.34923 94.013 7.15605 94.3331 7.02666C94.6533 6.89728 94.9963 6.83441 95.3415 6.84184C95.7973 6.82371 96.2501 6.92368 96.656 7.13208C97.062 7.34047 97.4072 7.65023 97.6587 8.03141L97.6605 10.8566Z" fill="#060B13"/>
<path d="M85.0508 12.3347L87.6429 8.80999C88.1654 8.12525 88.9995 6.97423 89.1553 6.72273C89.8776 5.52765 89.9656 4.272 89.3386 3.01818C88.8272 1.9975 87.9234 1.50001 86.8106 1.366C85.2506 1.16774 83.6282 1.89103 82.8949 3.37064C82.7244 3.69273 82.6126 4.04274 82.5649 4.40417L84.2277 4.77133C84.2533 4.69973 84.2771 4.64099 84.2936 4.58774C84.3727 4.28528 84.5184 4.00441 84.7202 3.76582C84.9221 3.52722 85.1746 3.33699 85.4596 3.20909C86.0664 2.9319 86.9371 3.04021 87.4064 3.44591C88.1929 4.13065 88.1819 5.28167 87.6117 6.01597C87.5164 6.1408 82.5961 12.419 82.5961 12.419C82.5499 12.4739 82.5251 12.5438 82.5264 12.6155V14.0051L89.8281 13.9868V12.3347H85.0508Z" fill="#060B13"/>
</g>
</g>
<defs>
<clipPath id="clip0_22001_165">
<rect width="110" height="17.95" fill="white"/>
</clipPath>
</defs>
</svg>
