<svg width="112" height="12" viewBox="0 0 112 12" fill="none" xmlns="http://www.w3.org/2000/svg">
<g clip-path="url(#clip0_22001_185)">
<mask id="mask0_22001_185" style="mask-type:luminance" maskUnits="userSpaceOnUse" x="0" y="0" width="112" height="12">
<path d="M112 0H0V12H112V0Z" fill="white"/>
</mask>
<g mask="url(#mask0_22001_185)">
<path d="M0.127222 0.333491C0.391415 -0.126476 1.00423 -0.00390632 1.41142 0.183244C4.3652 1.40894 7.30809 2.66627 10.2469 3.92492C10.9959 4.13316 10.6554 5.0096 10.6554 5.55655C9.03488 5.57369 7.41295 5.55656 5.79102 5.56974C5.34298 5.55128 4.81051 5.64618 4.47278 5.28374C3.13956 4.05804 1.85264 2.77962 0.549386 1.52888C0.242977 1.22311 -0.206423 0.77237 0.13267 0.333491H0.127222ZM19.4337 0.831678C20.1473 0.553589 20.8296 0.1727 21.5867 0.013227C22.0606 -0.0843018 22.2676 0.392799 22.4991 0.686703C21.4968 2.12196 20.056 3.19082 18.8359 4.44815C18.3061 4.90285 17.8404 5.65672 17.0314 5.56842C15.2815 5.56842 13.5316 5.55787 11.7789 5.56842C11.6672 5.061 11.3894 4.25969 12.0377 3.98687C14.4889 2.91669 16.9661 1.87814 19.4337 0.835633V0.831678ZM33.9303 1.04651C34.0664 0.724924 34.4437 0.846176 34.7174 0.813227C37.1224 0.827725 39.526 0.813227 41.935 0.822453C43.433 0.846176 44.8057 2.00861 44.9977 3.44914C45.2905 5.10845 43.8811 6.8297 42.1379 6.90483C40.0843 6.947 38.028 6.87715 35.9757 6.93119C35.5753 7.98555 36.0383 9.22575 35.7415 10.3302C35.2063 10.7256 34.5948 11.1276 33.8948 11.1566C33.8948 9.32855 33.9139 7.49923 33.9044 5.67122C33.8799 5.41949 33.9411 4.99511 34.3129 5.06364C36.7955 5.03201 39.2808 5.07814 41.7634 5.04914C42.3735 5.08209 43.0286 4.63662 43.049 4.01586C43.1852 3.2923 42.5043 2.6531 41.7743 2.67814C39.1869 2.63201 36.5994 2.72163 34.0256 2.63992C33.8268 2.13646 33.8894 1.57369 33.9357 1.04651H33.9303ZM56.0693 11.1473C56.0571 7.70482 56.0162 4.25969 56.0911 0.818499C59.8048 0.831679 63.5226 0.790822 67.2362 0.838269C67.0361 1.48011 66.7828 2.21553 66.2231 2.62805C63.4844 2.72558 60.7308 2.64519 57.9868 2.66496C57.9718 3.45573 57.9732 4.26232 57.9772 5.06232C60.6573 5.05441 63.3383 5.05441 66.0201 5.06232C66.0583 5.67517 66.0596 6.29198 66.0392 6.90746C63.351 6.93382 60.6655 6.90746 57.9772 6.92064C57.9772 7.71142 57.9772 8.50219 57.9772 9.29296C60.5647 9.28374 63.1426 9.29296 65.7246 9.29296C66.6779 9.23761 66.8386 10.3921 67.3003 10.9747C67.0541 11.1178 66.77 11.1879 66.4832 11.1763C63.0119 11.1618 59.5379 11.1948 56.068 11.1592L56.0693 11.1473ZM78.2534 0.894941C78.5257 0.620806 78.7872 1.01883 79.031 1.12426C81.9248 3.28308 84.835 5.41817 87.7221 7.58226C87.7643 5.65936 87.6676 3.7325 87.7643 1.81487C88.1974 1.27188 88.9069 1.0096 89.5524 0.769735C89.6981 1.16512 89.6681 1.5895 89.6722 2.00202C89.645 4.95425 89.6913 7.91043 89.6504 10.8627C89.7553 11.3279 89.1751 11.1869 88.9695 10.972C86.0212 8.78555 83.0851 6.58193 80.1286 4.40598C80.0918 6.34206 80.194 8.28473 80.085 10.2169C79.6574 10.744 78.9098 11.0722 78.2152 11.1842C78.1853 8.1213 78.2152 5.05837 78.1962 1.99412C78.1838 1.62595 78.2029 1.25742 78.2534 0.892304V0.894941ZM100.792 4.77369C101.328 2.49758 103.629 0.761826 106.042 0.826406C107.948 0.863309 109.848 0.755237 111.745 0.879125C111.726 1.54733 111.289 2.12723 110.872 2.63069C109.143 2.78094 107.393 2.57929 105.662 2.72031C104.243 2.88901 102.978 3.94469 102.666 5.30219C102.159 7.14733 103.727 9.17435 105.682 9.28242C107.153 9.30878 108.625 9.28242 110.097 9.28242C110.097 8.49165 110.097 7.70878 110.097 6.92196C108.998 6.90614 107.896 6.94832 106.797 6.91141C106.325 6.9615 106.167 6.43036 105.948 6.12987C105.812 5.80433 105.452 5.47089 105.634 5.09922C107.421 5.00565 109.216 5.09922 111.007 5.05573C111.331 5.09791 111.753 4.95425 111.994 5.24156C112.045 7.20005 111.994 9.16249 112.012 11.1223C110.662 11.2132 109.309 11.1526 107.959 11.1671C106.554 11.1473 105.064 11.3292 103.766 10.6795C101.497 9.72262 100.137 7.09461 100.799 4.77105L100.792 4.77369ZM4.43193 6.72558C4.78055 6.35392 5.32937 6.45145 5.79375 6.433C7.42793 6.45804 9.05394 6.41191 10.6826 6.46331C10.6976 6.96545 10.9795 7.75623 10.3517 8.01059C7.80243 9.11899 5.23949 10.1958 2.67791 11.2804C2.00925 11.544 1.35967 11.9078 0.635182 12C0.270214 11.8933 -0.0552604 11.5572 0.0182778 11.1631C0.245702 10.665 0.688293 10.3065 1.07368 9.92295C2.20535 8.86858 3.27847 7.75227 4.43874 6.72558H4.43193ZM11.7353 6.46199C13.4335 6.43036 15.1399 6.46199 16.8326 6.44091C17.1867 6.46726 17.6129 6.39478 17.8867 6.66759C19.1327 7.79445 20.3216 8.97797 21.5377 10.1338C21.8509 10.4607 22.2186 10.7638 22.3888 11.1882C22.4869 11.7602 21.7624 12.2056 21.2517 11.8999C18.1781 10.6742 15.148 9.34041 12.1085 8.03959C11.4099 7.80763 11.6645 6.99181 11.7353 6.46463" fill="#060B13"/>
</g>
</g>
<defs>
<clipPath id="clip0_22001_185">
<rect width="112" height="12" fill="white"/>
</clipPath>
</defs>
</svg>
