<svg width="96" height="20" viewBox="0 0 96 20" fill="none" xmlns="http://www.w3.org/2000/svg">
<g clip-path="url(#clip0_22001_146)">
<mask id="mask0_22001_146" style="mask-type:luminance" maskUnits="userSpaceOnUse" x="0" y="0" width="96" height="20">
<path d="M96 0H0V20H96V0Z" fill="white"/>
</mask>
<g mask="url(#mask0_22001_146)">
<path d="M8.81715 4.5016C8.76172 4.42851 8.69865 4.38995 8.62835 4.38995C8.57661 4.39201 8.5265 4.40857 8.48373 4.43774C7.95106 4.85622 7.22235 6.6277 6.625 8.96264L7.15366 8.96866C8.19811 8.98031 9.27631 8.99276 10.3425 9.00882C10.0613 7.93934 9.79573 7.02288 9.55229 6.28272C9.19637 5.2016 8.95615 4.71726 8.81715 4.5016Z" fill="#060B13"/>
<path d="M10.0027 0C4.47831 0 0 4.47711 0 10C0 15.5229 4.47831 20 10.0027 20C15.527 20 20.0053 15.5229 20.0053 10C20.0053 4.47711 15.5266 0 10.0027 0ZM17.1933 10.1815L17.1909 10.1835C17.1801 10.1924 17.1692 10.2004 17.1576 10.2084L17.1463 10.2161L17.123 10.2301L17.1014 10.2426C17.0254 10.2824 16.9409 10.3032 16.8551 10.3032H12.1173C12.1551 10.4602 12.1976 10.6386 12.2414 10.8325C12.5009 11.9542 13.1911 14.9337 13.9238 14.9337H13.9395H13.9475H13.9616C14.534 14.9337 14.826 14.1064 15.4664 12.2936L15.474 12.2715C15.5768 11.9803 15.6929 11.6518 15.8187 11.3044L15.8508 11.2157C15.8698 11.1656 15.9057 11.1237 15.9524 11.0973C15.999 11.0709 16.0534 11.0617 16.1062 11.0712C16.1589 11.0808 16.2067 11.1085 16.2411 11.1495C16.2755 11.1906 16.2945 11.2424 16.2947 11.296C16.2946 11.3183 16.2914 11.3405 16.2851 11.3618L16.2586 11.451C16.1919 11.6667 16.1208 11.9606 16.0388 12.3008C15.6572 13.8819 15.0807 16.2707 13.6016 16.2707H13.5908C12.6351 16.2631 12.0643 14.7357 11.8188 14.0835C11.3621 12.8639 11.0154 11.5643 10.6832 10.3056H6.32057L5.4151 13.2008L5.40185 13.1904C5.34855 13.2744 5.26943 13.339 5.17634 13.3743C5.08325 13.4096 4.98122 13.4138 4.88554 13.3863C4.78987 13.3587 4.70571 13.3009 4.64568 13.2215C4.58566 13.1421 4.55301 13.0453 4.55262 12.9458V12.9301L4.60726 12.6024C4.73219 11.8578 4.88203 11.0851 5.05316 10.304H3.21371L3.20688 10.2972C3.04268 10.2719 2.8929 10.1888 2.78456 10.0629C2.67621 9.937 2.61642 9.77654 2.61596 9.61044C2.61507 9.44812 2.67145 9.29067 2.77519 9.1658C2.87894 9.04093 3.0234 8.95662 3.18318 8.92771C3.25469 8.92014 3.3266 8.91705 3.3985 8.91847C3.42501 8.91847 3.45474 8.91847 3.48808 8.91847C4.07177 8.92851 4.69322 8.93775 5.37051 8.94659C6.33181 5.04137 7.44536 3.05904 8.68063 3.05341C10.0063 3.05341 10.9893 6.07028 11.7762 9.02169L11.7794 9.03333C13.3963 9.06586 15.1197 9.11365 16.7952 9.23414L16.8655 9.24056C16.8925 9.24107 16.9193 9.24348 16.9459 9.24779H16.9555L16.964 9.2498H16.9684C17.0668 9.26975 17.1575 9.31724 17.2299 9.38674C17.3024 9.45624 17.3536 9.54489 17.3776 9.64235C17.4016 9.73982 17.3974 9.84209 17.3655 9.93727C17.3336 10.0324 17.2753 10.1166 17.1974 10.1799L17.1933 10.1815Z" fill="#060B13"/>
<path d="M25.5558 12.502L24.7628 14.4611H22.459L26.8425 4.23175H28.8772L33.2454 14.4615H30.9556L30.1626 12.5024L25.5558 12.502ZM27.8456 6.8189L26.3496 10.543H29.3713L27.8456 6.8189Z" fill="#060B13"/>
<path d="M46.2298 10.5281V14.4615H44.1506V10.7077C44.1506 9.57111 43.597 8.95786 42.6241 8.95786C42.1902 8.95786 41.7114 9.15224 41.2775 9.75063C41.313 10.0084 41.333 10.268 41.3374 10.5281V14.4615H39.2589V10.7077C39.2589 9.57111 38.7053 8.95786 37.7179 8.95786C37.3162 8.95786 36.8651 9.19882 36.4465 9.76549V14.4615H34.3672V7.29762H36.4465V7.73135C36.8952 7.31248 37.374 7.07312 38.2116 7.07312C39.1243 7.07312 39.9318 7.43216 40.5014 8.08999C41.2646 7.38718 41.9825 7.07312 43.1045 7.07312C44.8536 7.07312 46.2298 8.43416 46.2298 10.5281Z" fill="#060B13"/>
<path d="M55.3702 10.8867C55.3702 12.9654 53.7847 14.6104 51.8098 14.6104C51.002 14.6104 50.3287 14.4012 49.7756 14.0421V17.9156H47.6963V7.29716H49.7756V7.71604C50.3291 7.357 51.0024 7.14777 51.8098 7.14777C53.7843 7.14817 55.3702 8.77829 55.3702 10.8867ZM53.3215 10.8867C53.3215 9.82487 52.5438 8.89757 51.4664 8.89757C50.853 8.89757 50.2395 9.1068 49.776 9.73491V12.0241C50.2395 12.6373 50.853 12.8466 51.4664 12.8466C52.5442 12.8454 53.3215 11.9337 53.3215 10.8867Z" fill="#060B13"/>
<path d="M58.6152 14.4611H56.5361V3.84296H58.6152V14.4611Z" fill="#060B13"/>
<path d="M60.4863 4.77027C60.4863 4.06746 61.0398 3.54376 61.7428 3.54376C62.4309 3.54376 62.9844 4.06585 62.9844 4.77027C62.9844 5.45822 62.4309 5.96666 61.7428 5.96666C61.0398 5.96666 60.4863 5.45822 60.4863 4.77027ZM62.79 7.29758V14.4614H60.7108V7.29758H62.79Z" fill="#060B13"/>
<path d="M70.344 14.3566C69.4763 14.6257 69.0874 14.6856 68.4158 14.6856C66.6804 14.6856 65.5436 13.459 65.5436 11.6048V9.0474H64.0332V7.2976H65.544V4.74017H67.6084V7.2976H70.1962V9.0474H67.6084V11.59C67.6084 12.3976 68.1021 12.7715 68.8649 12.7715C69.2538 12.7715 69.6727 12.6819 70.0764 12.5771L70.344 14.3566Z" fill="#060B13"/>
<path d="M78.6913 14.4611H76.612V13.9526C76.0287 14.4161 75.3703 14.6856 74.5633 14.6856C72.6784 14.6856 71.4219 13.3245 71.4219 11.2458V7.29761H73.5011V11.0514C73.5011 12.188 74.0696 12.8012 75.0421 12.8012C75.5643 12.8012 76.134 12.4872 76.6128 11.904V7.29761H78.6921L78.6913 14.4611Z" fill="#060B13"/>
<path d="M87.5173 14.461H85.438V14.0421C84.8845 14.4012 84.2112 14.6104 83.4034 14.6104C81.4285 14.6104 79.8281 12.9803 79.8281 10.8715C79.8281 8.79275 81.4289 7.14737 83.4034 7.14737C84.2112 7.14737 84.8845 7.35661 85.438 7.71564V3.84296H87.5173V14.461ZM85.4376 12.0237V9.73452C84.9741 9.12127 84.3606 8.91203 83.7472 8.91203C82.6554 8.91203 81.8921 9.82448 81.8921 10.8711C81.8921 11.9329 82.6554 12.8602 83.7472 12.8602C84.3594 12.861 84.9741 12.6518 85.4376 12.0237Z" fill="#060B13"/>
<path d="M95.9552 11.4104H90.6746C90.8393 12.2478 91.3929 12.906 92.5297 12.906C93.113 12.906 93.5169 12.7265 93.7413 12.3675H95.9106C95.5218 13.7434 94.1752 14.6855 92.4847 14.6855C90.1809 14.6855 88.625 13.0257 88.625 10.8867C88.625 8.67348 90.166 7.07147 92.4249 7.07147C94.4737 7.07147 96.0002 8.52207 96.0002 10.7357C96.0035 10.9615 95.9884 11.1871 95.9552 11.4104ZM90.6895 10.1839H93.9358C93.8153 9.28673 93.2774 8.79316 92.4398 8.79316C91.4375 8.79316 90.8839 9.37629 90.6895 10.1839Z" fill="#060B13"/>
</g>
</g>
<defs>
<clipPath id="clip0_22001_146">
<rect width="96" height="20" fill="white"/>
</clipPath>
</defs>
</svg>
