<svg width="104" height="12" viewBox="0 0 104 12" fill="none" xmlns="http://www.w3.org/2000/svg">
<g clip-path="url(#clip0_22001_213)">
<mask id="mask0_22001_213" style="mask-type:luminance" maskUnits="userSpaceOnUse" x="0" y="0" width="104" height="12">
<path d="M104 0H0V12H104V0Z" fill="white"/>
</mask>
<g mask="url(#mask0_22001_213)">
<path d="M4.76174 11.8148L0 0.185242H2.43919L5.92472 8.86108L9.43084 0.185242H11.87L7.08428 11.8148H4.76174Z" fill="#060B13"/>
<path d="M13.97 4.97781H21.1229C20.9157 4.1923 20.4547 3.4939 19.809 2.98735C19.1786 2.47766 18.3854 2.20222 17.5688 2.20936C16.7308 2.18865 15.9126 2.46078 15.26 2.97725C14.6206 3.48929 14.1679 4.19137 13.97 4.97781ZM13.253 10.2588C12.6812 9.70782 12.2296 9.04833 11.9259 8.32049C11.6221 7.59264 11.4725 6.81169 11.4862 6.02524C11.4731 5.23744 11.6204 4.45499 11.9197 3.72392C12.219 2.99284 12.6642 2.32789 13.229 1.76816C13.7764 1.19607 14.44 0.743096 15.1769 0.438524C15.9138 0.133952 16.7076 -0.0154433 17.507 -1.44443e-05C19.0682 -0.0176714 20.577 0.552386 21.7233 1.59302C22.3182 2.12417 22.7934 2.77159 23.1183 3.49371C23.4433 4.21582 23.6108 4.99668 23.6101 5.78612C23.6121 6.13528 23.5892 6.48416 23.5415 6.83018H13.97C14.0056 7.24023 14.1233 7.63935 14.3164 8.00462C14.5095 8.36989 14.7742 8.69414 15.0953 8.95873C15.7648 9.51499 16.62 9.80885 17.4967 9.78387C18.0275 9.80264 18.5562 9.70853 19.0465 9.50797C19.5368 9.30742 19.9771 9.00517 20.3373 8.62193L23.1093 8.6455C22.5939 9.64641 21.8068 10.488 20.8348 11.0772C19.8575 11.6855 18.7225 12.0048 17.5654 11.9966C16.7637 12.0118 15.9674 11.8654 15.2257 11.5665C14.484 11.2676 13.8126 10.8225 13.253 10.2588Z" fill="#060B13"/>
<path d="M25.1846 11.8148V5.75248C25.1846 3.89113 25.642 2.49118 26.5569 1.55265C27.0243 1.08178 27.5877 0.713023 28.2102 0.470439C28.8326 0.227855 29.5002 0.116909 30.1694 0.144848H30.4061V2.35759H30.1694C28.3991 2.35759 27.5152 3.48922 27.5175 5.75248V11.8148H25.1846Z" fill="#060B13"/>
<path d="M37.3422 2.20938C36.8323 2.19358 36.3246 2.28282 35.8519 2.47135C35.3792 2.65987 34.952 2.9435 34.5977 3.30396C33.893 4.0304 33.4999 4.99514 33.4999 5.99832C33.4999 7.0015 33.893 7.96624 34.5977 8.69268C34.947 9.0518 35.3687 9.33551 35.836 9.52571C36.3032 9.71591 36.8057 9.80843 37.3114 9.79736C37.8119 9.80971 38.3095 9.71899 38.7722 9.53105C39.2348 9.3431 39.6522 9.06211 39.9975 8.70615C40.6901 7.97364 41.0749 7.01119 41.0749 6.01179C41.0749 5.0124 40.6901 4.04995 39.9975 3.31743C39.6529 2.96036 39.2357 2.67839 38.773 2.48983C38.3102 2.30126 37.8122 2.2103 37.3114 2.22285L37.3422 2.20938ZM32.9922 1.7446C33.9927 0.759499 35.3103 0.145551 36.7203 0.00739201C38.1304 -0.130767 39.5456 0.215417 40.7247 0.986942C41.9038 1.75847 42.774 2.90757 43.1867 4.23839C43.5994 5.56921 43.5293 6.99936 42.9882 8.28509C42.4471 9.57081 41.4685 10.6325 40.2193 11.2892C38.9701 11.9459 37.5276 12.157 36.1376 11.8865C34.7476 11.6159 33.4962 10.8805 32.5967 9.80556C31.6972 8.73063 31.2053 7.38271 31.2048 5.99158C31.1921 5.20145 31.3441 4.41711 31.6515 3.68677C31.9588 2.95642 32.4151 2.2955 32.9922 1.7446Z" fill="#060B13"/>
<path d="M55.4529 11.8148H52.801L49.7443 7.65198L46.6876 11.8148H44.0117L48.4167 5.7693L44.3651 0.185242H46.9964L49.7203 3.90682L52.4923 0.185242H55.1236L51.072 5.7693L55.4529 11.8148Z" fill="#060B13"/>
<path d="M58.146 11.7777V7.88771H56.0225V6.54054H58.146V6.12628L58.1941 4.70837C58.3221 3.29608 58.7727 2.18691 59.5457 1.38085C60.3635 0.556663 61.4637 0.0597927 62.6333 -0.0134888V1.40779C61.8582 1.52465 61.1455 1.89348 60.6092 2.45521C60.0513 3.08287 59.7292 3.87928 59.6967 4.71174L59.6487 6.12965V6.54391H63.3846V7.89109H59.6624V11.7811L58.146 11.7777Z" fill="#060B13"/>
<path d="M67.3055 0.188599H65.7891V11.8181H67.3055V0.188599Z" fill="#060B13"/>
<path d="M79.221 2.75498C78.8014 2.32375 78.2949 1.98304 77.7338 1.75458C77.1727 1.52611 76.5692 1.41489 75.9619 1.42801C75.3518 1.41718 74.746 1.52936 74.1819 1.75761C73.6177 1.98586 73.1073 2.32531 72.6822 2.75498C71.8208 3.62555 71.339 4.7914 71.339 6.00505C71.339 7.2187 71.8208 8.38455 72.6822 9.25512C73.1036 9.68816 73.6114 10.0313 74.1739 10.2631C74.7365 10.4949 75.3416 10.6103 75.9516 10.6023C76.5568 10.6136 77.1579 10.5019 77.717 10.2741C78.2761 10.0463 78.7812 9.7074 79.2004 9.2787C80.0477 8.39834 80.5198 7.23308 80.5198 6.0219C80.5198 4.81072 80.0477 3.64544 79.2004 2.76508L79.221 2.75498ZM71.6153 1.7446C72.6158 0.759499 73.9334 0.145551 75.3434 0.00739201C76.7535 -0.130767 78.1687 0.215417 79.3478 0.986942C80.5269 1.75847 81.397 2.90757 81.8098 4.23839C82.2225 5.56921 82.1523 6.99936 81.6112 8.28509C81.0701 9.57081 80.0916 10.6325 78.8424 11.2892C77.5932 11.9459 76.1506 12.157 74.7607 11.8865C73.3707 11.6159 72.1193 10.8805 71.2198 9.80556C70.3203 8.73063 69.8284 7.38271 69.8279 5.99158C69.8152 5.20145 69.9672 4.41711 70.2746 3.68677C70.5819 2.95642 71.0382 2.2955 71.6153 1.7446Z" fill="#060B13"/>
<path d="M93.9276 2.75498C93.508 2.32375 93.0015 1.98304 92.4404 1.75458C91.8792 1.52611 91.2758 1.41489 90.6685 1.42801C90.0584 1.41718 89.4526 1.52936 88.8885 1.75761C88.3243 1.98586 87.8139 2.32531 87.3888 2.75498C86.5274 3.62555 86.0456 4.7914 86.0456 6.00505C86.0456 7.2187 86.5274 8.38455 87.3888 9.25512C87.8099 9.68848 88.3177 10.0318 88.8803 10.2636C89.4428 10.4955 90.0481 10.6107 90.6582 10.6023C91.263 10.614 91.8636 10.5024 92.4222 10.2745C92.9808 10.0467 93.4852 9.70763 93.9036 9.2787C94.7517 8.39873 95.2242 7.23331 95.2242 6.0219C95.2242 4.81048 94.7517 3.64505 93.9036 2.76508L93.9276 2.75498ZM86.3253 1.7446C87.3258 0.759499 88.6434 0.145551 90.0534 0.00739201C91.4635 -0.130767 92.8787 0.215417 94.0578 0.986942C95.237 1.75847 96.107 2.90757 96.5198 4.23839C96.9325 5.56921 96.8624 6.99936 96.3213 8.28509C95.7802 9.57081 94.8016 10.6325 93.5524 11.2892C92.3032 11.9459 90.8607 12.157 89.4707 11.8865C88.0807 11.6159 86.8293 10.8805 85.9298 9.80556C85.0303 8.73063 84.5384 7.38271 84.5379 5.99158C84.525 5.20142 84.6769 4.41703 84.9843 3.68666C85.2917 2.95628 85.748 2.29538 86.3253 1.7446Z" fill="#060B13"/>
<path d="M98.5488 11.8147V5.78611C98.5488 3.91128 98.9868 2.50011 99.8627 1.5526C100.313 1.07816 100.862 0.70558 101.474 0.460726C102.085 0.215871 102.743 0.104618 103.403 0.134692C103.518 0.132924 103.632 0.139679 103.746 0.154899V1.57617C103.633 1.55791 103.518 1.55001 103.403 1.5526C102.94 1.53382 102.478 1.62078 102.055 1.80661C101.632 1.99244 101.258 2.2721 100.964 2.6236C100.365 3.33536 100.065 4.38953 100.065 5.78611V11.8147H98.5488Z" fill="#060B13"/>
<path d="M102.449 10.5215H102.707C102.794 10.5304 102.882 10.5115 102.957 10.4676C102.979 10.4509 102.996 10.4293 103.007 10.4047C103.019 10.3801 103.024 10.3532 103.022 10.3262C103.023 10.2902 103.012 10.255 102.991 10.2251C102.969 10.1948 102.938 10.1715 102.902 10.1578C102.833 10.1408 102.761 10.134 102.69 10.1376H102.449V10.5215ZM102.237 11.2456V9.96243H102.69C102.805 9.95629 102.921 9.96765 103.033 9.99611C103.099 10.0199 103.157 10.0635 103.197 10.1207C103.237 10.1761 103.258 10.2418 103.259 10.3093C103.26 10.355 103.251 10.4004 103.233 10.4426C103.216 10.4849 103.189 10.5232 103.156 10.5552C103.082 10.6257 102.985 10.6665 102.882 10.6697C102.924 10.6857 102.962 10.7098 102.995 10.7404C103.068 10.8178 103.132 10.9025 103.187 10.993L103.348 11.2456H103.091L102.974 11.0435C102.92 10.9307 102.844 10.829 102.751 10.7438C102.702 10.7105 102.643 10.695 102.583 10.7H102.449V11.2456H102.237ZM102.772 9.58859C102.597 9.59027 102.426 9.63546 102.274 9.71994C102.114 9.80314 101.981 9.93077 101.894 10.087C101.804 10.2384 101.756 10.4104 101.756 10.5855C101.757 10.7591 101.803 10.9296 101.89 11.0806C101.978 11.2359 102.109 11.3633 102.268 11.4477C102.42 11.5359 102.595 11.5825 102.772 11.5825C102.949 11.5825 103.123 11.5359 103.276 11.4477C103.435 11.3633 103.566 11.2359 103.654 11.0806C103.738 10.9287 103.783 10.7586 103.784 10.5855C103.784 10.4108 103.738 10.239 103.65 10.087C103.562 9.93147 103.429 9.80408 103.269 9.71994C103.124 9.6387 102.96 9.59362 102.792 9.58859H102.772ZM102.772 9.39324C102.981 9.39399 103.186 9.4461 103.369 9.54481C103.56 9.64646 103.719 9.79947 103.825 9.98601C103.929 10.1693 103.985 10.3755 103.986 10.5855C103.987 10.7936 103.931 10.9982 103.825 11.1783C103.722 11.3661 103.566 11.5206 103.376 11.6228C103.191 11.7243 102.983 11.7776 102.772 11.7776C102.56 11.7776 102.353 11.7243 102.168 11.6228C101.982 11.5168 101.83 11.3616 101.729 11.1749C101.622 10.9936 101.566 10.7881 101.566 10.5788C101.566 10.3695 101.622 10.1639 101.729 9.98264C101.835 9.7961 101.994 9.64309 102.185 9.54144C102.372 9.44225 102.581 9.39125 102.792 9.39324H102.772Z" fill="#060B13"/>
</g>
</g>
<defs>
<clipPath id="clip0_22001_213">
<rect width="104" height="12" fill="white"/>
</clipPath>
</defs>
</svg>
