<svg width="122" height="12" viewBox="0 0 122 12" fill="none" xmlns="http://www.w3.org/2000/svg">
<g clip-path="url(#clip0_22001_232)">
<path d="M12.3373 4.08022C12.3373 2.08995 11.007 0.282129 8.48495 0.267449C6.78796 0.267449 1.69699 0.250671 0 0.250671V11.7708H2.01884V7.92654H7.35948L10.4804 11.7708H12.8796V11.624L9.63774 7.69585C11.6722 7.25123 12.3451 5.65734 12.3451 4.08022H12.3373ZM2.02664 5.96773V2.28709H8.49276C9.76062 2.28709 10.3263 3.20777 10.3263 4.12846C10.3263 5.04914 9.77623 5.96982 8.49276 5.96982L2.02664 5.96773Z" fill="#060B13"/>
<path d="M26.323 0.254866C24.6416 0.254866 19.5662 0.271644 17.8848 0.271644V11.775H19.9017V8.38583H26.323C31.5661 8.38583 31.5505 0.250671 26.323 0.250671V0.254866ZM26.323 6.39766H19.9017V2.32064H26.323C28.8899 2.32064 28.9055 6.39766 26.323 6.39766Z" fill="#060B13"/>
<path d="M63.1978 5.82296C64.1907 5.34479 64.5886 4.49122 64.5886 3.602C64.5886 1.29504 63.0145 0.267395 60.904 0.267395H52.4346V11.7707H60.904C63.1198 11.7707 64.9085 10.9507 64.9085 8.38578C64.9085 7.66223 64.4501 6.23192 63.1978 5.82296ZM54.4203 2.2388H60.902C62.1874 2.2388 62.5834 3.12592 62.5834 3.65233C62.5834 4.30876 62.1718 4.8855 60.902 4.8855H54.4223L54.4203 2.2388ZM60.902 9.75108H54.4223V6.79188H60.904C61.7291 6.79188 62.9072 7.33297 62.9072 8.369C62.9072 9.45327 61.7369 9.75108 60.904 9.75108" fill="#060B13"/>
<path d="M71.7551 0.267395H69.7363V11.7728H80.6517V9.76575H71.7551V0.267395Z" fill="#060B13"/>
<path d="M87.4983 0.267395H85.4951V11.7728H87.4983V0.267395Z" fill="#060B13"/>
<path d="M102.625 8.59344C102.336 8.90217 102.008 9.16489 101.65 9.37361C101.247 9.60346 100.819 9.77819 100.376 9.89372C99.8731 10.0234 99.3569 10.0868 98.8394 10.0825C98.1606 10.0945 97.4848 9.98387 96.84 9.7553C96.307 9.56238 95.8141 9.25963 95.3888 8.86397C95.0075 8.5016 94.7052 8.05336 94.5033 7.55111C94.3063 7.06113 94.2047 6.53295 94.2048 5.99915C94.2037 5.45983 94.3053 4.92597 94.5033 4.43042C94.7052 3.92818 95.0075 3.47993 95.3888 3.11755C95.8142 2.72189 96.309 2.42169 96.8439 2.23462C97.4889 2.01084 98.1637 1.90313 98.8413 1.91584C99.3347 1.91336 99.8268 1.97106 100.308 2.08781C100.735 2.19088 101.15 2.34567 101.545 2.54921C101.9 2.73335 102.229 2.97291 102.52 3.26017C102.695 3.43676 102.854 3.63133 102.994 3.8411L104.695 2.83023C104.479 2.49485 104.231 2.18547 103.953 1.90745C103.56 1.51252 103.12 1.17542 102.645 0.904974C102.116 0.606781 101.553 0.382651 100.971 0.238052C100.307 0.0751899 99.6278 -0.00433789 98.9466 0.00106343C97.9691 -0.0150005 96.9964 0.151038 96.0715 0.491819C95.2947 0.779519 94.5763 1.22445 93.9551 1.80259C93.4006 2.32673 92.9564 2.97195 92.6521 3.69523C92.3478 4.4185 92.1904 5.20322 92.1904 5.99706C92.1904 6.79089 92.3478 7.57561 92.6521 8.29889C92.9564 9.02217 93.4006 9.66738 93.9551 10.1915C94.5757 10.7706 95.2943 11.2156 96.0715 11.5023C96.9923 11.8438 97.961 12.0119 98.9349 11.9993C99.6376 12.0055 100.338 11.9203 101.022 11.7456C101.617 11.591 102.191 11.3534 102.729 11.0388C103.213 10.7574 103.658 10.4044 104.051 9.99019C104.336 9.68635 104.588 9.3478 104.8 8.98142L103.091 7.97475C102.958 8.20232 102.802 8.41333 102.625 8.60392" fill="#060B13"/>
<path d="M43.9031 0.254884C43.6762 0.254608 43.4515 0.302412 43.2419 0.395564C43.0322 0.488716 42.8417 0.625387 42.6812 0.797765C42.5206 0.970142 42.3933 1.17484 42.3064 1.40017C42.2196 1.62549 42.1749 1.86702 42.1749 2.11093H45.3952V6.08099C45.3354 6.60855 45.2269 7.12842 45.0714 7.63294C44.8695 8.13518 44.5672 8.58343 44.1859 8.9458C43.7602 9.34192 43.2665 9.6447 42.7327 9.83713C41.6677 10.2907 40.4818 10.2907 39.4168 9.83713C38.883 9.6447 38.3893 9.34192 37.9636 8.9458C37.5823 8.58343 37.2799 8.13518 37.078 7.63294C36.9226 7.12842 36.8141 6.60855 36.7542 6.08099V0.254884H34.7608V6.08099C34.7561 6.87467 34.9104 7.66013 35.2134 8.38393C35.5163 9.10772 35.9607 9.75285 36.5163 10.2754C37.1379 10.8524 37.8571 11.2953 38.6346 11.5799C40.2193 12.1331 41.9262 12.1331 43.511 11.5799C44.2882 11.2932 45.0068 10.8482 45.6274 10.2691C46.183 9.74656 46.6273 9.10142 46.9303 8.37763C47.2332 7.65384 47.3876 6.86838 47.3829 6.0747V0.254884H43.9031Z" fill="#060B13"/>
<path d="M114.502 2.1612L109.789 11.7707H107.782L113.384 0.3387V0.267395H116.361L122 11.7707H119.993L118.795 9.33792H115.204C114.971 9.33792 114.74 9.2885 114.524 9.19249C114.309 9.09647 114.113 8.95574 113.948 8.77833C113.783 8.60091 113.652 8.39029 113.563 8.15849C113.473 7.92669 113.427 7.67825 113.427 7.42735H117.855L115.267 2.1612H114.502Z" fill="#060B13"/>
</g>
<defs>
<clipPath id="clip0_22001_232">
<rect width="122" height="12" fill="white"/>
</clipPath>
</defs>
</svg>
