<?xml version="1.0" encoding="UTF-8"?>
<svg id="_Ñëîé_1" data-name="Ñëîé 1" xmlns="http://www.w3.org/2000/svg" viewBox="50 230 900 540">
  <defs>
    <style>
      .cls-1 {
        fill: #f1f5f9;
        fill-opacity: 0.6;
        stroke: #94a3b8;
        stroke-opacity: 0.7;
        stroke-width: 0.8;
        stroke-miterlimit: 10;
      }
      .cls-4 {
        fill: #94a3b8;
        fill-opacity: 0.5;
        font-size: 8px;
      }
    </style>
    <filter id="soft-outline" x="-20%" y="-20%" width="140%" height="140%">
      <feGaussianBlur in="SourceAlpha" stdDeviation="1.5" result="blur"/>
      <feOffset in="blur" dx="0" dy="0" result="offsetBlur"/>
      <feFlood flood-color="rgba(0, 0, 0, 0.08)" result="glowColor"/>
      <feComposite in="glowColor" in2="offsetBlur" operator="in" result="softGlow"/>
      <feMerge>
        <feMergeNode in="softGlow"/>
        <feMergeNode in="SourceGraphic"/>
      </feMerge>
    </filter>
  </defs>
  <path class="cls-1" d="M908.23,698.1c3.48,8.92-2.03,13.17-7.08,13.26-7.08-1.02-12.84-6.93-17.79-15.88-.38-.69-.69-1.44-.92-2.21-4.51-15.01-4.94-28.62-9.89-37.67.89,1.01,2.04,1.48,3.43,1.49,4.95-.33,9.52-1.43,13.72-3.26,2.98-1.03,6.2-.86,9.58.12,1.94,1.19,3.66,1.03,5.2-.33-.92,11.55-4.35,21.73-1.21,29.99l4.96,14.49Z"/>
  <path class="cls-1" d="M904.48,653.62c-1.54,1.36-3.26,1.52-5.2.33-3.38-.98-6.6-1.15-9.58-.12-4.2,1.83-8.77,2.93-13.72,3.26-1.39-.01-2.54-.48-3.43-1.49,0,0,0-.01,0-.01-.29-.34-.56-.73-.79-1.18-2.78-3.88-4.47-8.34-5.3-13.24-.23-1.32-.58-2.61-.93-3.89-1.22-4.46-1.54-8.44-.03-11.49,6.39-7.58,12.19-10.64,16.95-5.58,2.04,1.31,4.12,1.21,6.25-.12,2.91-1.28,6.64-1.54,10.9-1.16,2.91.6,5.2,2.17,6.93,4.61,1.38,1.94,2.02,4.45,1.91,6.96l-.65,15.2c-.11,2.55-.88,5.05-2.37,6.93-.3.38-.61.71-.93.99Z"/>
      <path class="cls-1" style="fill: rgba(37, 99, 235, 0.2); fill-opacity: 1; stroke: #93c5fd; stroke-opacity: 1; stroke-width: 1.1; filter: url(#soft-outline);" d="M907.02,362.66c1.82,7.44.75,14.33-3.13,20.71-2.5,4.27-6.11,4.55-10.59,1.75-3.68-2.78-7.04-2.41-10.15.35-1.59,1.4-3.57,2.39-5.68,2.35-3.5-.07-6.36-2.52-8.5-7.71-4.53-8.74-3.98-15.61,1.4-20.7,3.26-1.84,7.01-2.04,11.05-1.25.93.18,1.84.48,2.65.95,2.91,1.69,6.27.93,9.9-1.3.93-.57,1.98-.94,3.06-1.09l2.47-.34c1.55-.21,3.16.09,4.4,1.04.26.2.51.42.73.65,1.13,1.14,1.91,2.69,2.39,4.59Z"/>
  <path class="cls-1" d="M905.29,296.65c.54,1.38.64,2.91.41,4.38-1.22,7.96-3.67,16.1-7.09,24.39-.55-8.49-.53-17.64.03-27.44-.03-1.19-.12-2.28-.3-3.26h.09c3.36-1.85,5.64-1.2,6.86,1.93Z"/>
  <path class="cls-1" d="M904.63,358.07c-.22-.23-.47-.45-.73-.65-1.24-.95-2.85-1.25-4.4-1.04l-2.47.34c-1.08.15-2.13.52-3.06,1.09-3.63,2.23-6.99,2.99-9.9,1.3-.81-.47-1.72-.77-2.65-.95-4.04-.79-7.79-.59-11.05,1.25,6.49-13.66,9.96-29.88,11.4-47.82.65-10.11,3.25-17.52,8.61-21.06,5.04-1.92,7.22.13,7.96,4.19.18.98.27,2.07.3,3.26-.56,9.8-.58,18.95-.03,27.44.79,12.31,2.78,23.22,6.02,32.65Z"/>
  <path class="cls-4" d="M889.11,593.35c.64-.54,1.47-.81,2.48-.81.92,0,1.67.25,2.26.76.59.5.89,1.16.89,1.95,0,1.3-.73,2.31-2.18,3.03v.03c1.71.61,2.57,1.67,2.57,3.18,0,.97-.35,1.74-1.05,2.31s-1.67.86-2.91.86c-1,0-1.83-.28-2.48-.85s-.97-1.3-.97-2.21c0-1.5.84-2.6,2.53-3.29v-.03c-1.4-.65-2.11-1.6-2.11-2.85,0-.84.32-1.54.97-2.08ZM893.11,602.98c.43-.37.64-.83.64-1.4,0-1.17-.8-2.05-2.42-2.63-1.49.59-2.24,1.46-2.24,2.58,0,.59.22,1.07.65,1.44s1.01.56,1.71.56,1.23-.18,1.66-.55ZM891.42,597.71c1.3-.54,1.94-1.3,1.94-2.29,0-.54-.17-.97-.51-1.28-.33-.31-.79-.47-1.38-.47-.54,0-1.01.17-1.38.49-.38.33-.57.74-.57,1.24,0,1.02.63,1.79,1.9,2.31Z"/>
  <path class="cls-4" d="M891.42,406.2c1.3-.53,1.94-1.3,1.94-2.29,0-.54-.17-.96-.51-1.27-.33-.31-.79-.47-1.38-.47-.54,0-1.01.16-1.38.49-.38.32-.57.73-.57,1.24,0,1.02.63,1.78,1.9,2.3ZM893.75,410.08c0-1.18-.8-2.06-2.42-2.63-1.49.59-2.24,1.45-2.24,2.58,0,.58.22,1.06.65,1.44.43.37,1.01.56,1.71.56s1.23-.19,1.66-.56c.43-.36.64-.83.64-1.39ZM889.11,401.85c.64-.55,1.47-.82,2.48-.82.92,0,1.67.26,2.26.76.59.51.89,1.16.89,1.96,0,1.3-.73,2.3-2.18,3.02v.04c1.71.61,2.57,1.67,2.57,3.17,0,.97-.35,1.74-1.05,2.32-.7.57-1.67.86-2.91.86-1,0-1.83-.29-2.48-.86-.65-.56-.97-1.3-.97-2.2,0-1.51.84-2.61,2.53-3.29v-.04c-1.4-.65-2.11-1.6-2.11-2.84,0-.85.32-1.54.97-2.08Z"/>
  <path class="cls-4" d="M884.35,601.27c0-1.54-1.09-2.3-3.27-2.3h-.97v-1.14h.92c1.94,0,2.91-.72,2.91-2.16,0-1.33-.74-2-2.22-2-.82,0-1.6.28-2.33.85v-1.31c.75-.45,1.64-.67,2.67-.67s1.77.26,2.36.78c.6.53.89,1.2.89,2.01,0,1.55-.78,2.54-2.35,2.98v.03c.84.09,1.51.38,2.01.89s.75,1.15.75,1.91c0,1.05-.38,1.9-1.13,2.55-.76.65-1.75.97-2.99.97-1.11,0-2-.21-2.66-.63v-1.45c.8.63,1.71.95,2.72.95.81,0,1.47-.2,1.95-.61.49-.41.74-.96.74-1.65Z"/>
  <path class="cls-4" d="M883.92,402.73c-.38-.38-.94-.56-1.65-.56-1.05,0-2.05.45-3.01,1.34v-1.41c.92-.71,1.98-1.07,3.2-1.07,1.04,0,1.87.29,2.47.85.6.57.9,1.33.9,2.28,0,.76-.21,1.49-.62,2.21-.42.72-1.16,1.61-2.24,2.67l-2.7,2.68v.03h5.45v1.21h-7.07v-1.2l3.42-3.42c.88-.88,1.5-1.6,1.87-2.18.38-.58.56-1.2.56-1.86s-.19-1.2-.58-1.57Z"/>
  <path class="cls-1" d="M858.96,634.56c0,.29,0,.58-.02.87-.29,6.98-1.37,13.38-3.55,18.98-.36.96-.89,1.76-1.63,2.35-.27.22-.57.41-.91.57-1.52.72-3.26.47-4.78-.27-3.41-1.65-7.03-.48-10.8,2.82-2.58,1.4-4.63,1.4-6.15,0-3.92-3.21-7.81-2.13-11.69.39-1.46.96-3.34.78-4.54-.4-.27-.24-.5-.55-.69-.91-.38-.73-.71-1.58-.99-2.57l-3.63-11.17c-.68-3.22-1-6.42-1-9.6s.3-6.17.85-9.23c.7-3.85,3.22-7.17,6.77-8.25,3.93-1.19,8.38-.09,13.16,2.38,2.22,1.95,4.64,1.87,7.25,0,10.09-2.95,16.64-.9,20.2,5.38,1.48,2.6,2.15,5.62,2.15,8.66Z"/>
  <path class="cls-1" d="M815.67,356.97c1.81-1.25,3.8-1.39,5.94-.5,1.4.58,2.92.87,4.38.49,1.51-.39,2.81-1.11,3.87-2.21,5.05-3.53,10.05-3.6,15.01-1.23,2.46,2.42,5.97,1.78,9.74.42.48-.04.91.01,1.28.15,1.38.5,2.08,2.19,2.36,4.62.35,8.26.02,15.71-3.07,19.89-.36.48-.68.99-.94,1.53-1.94,4.04-5.07,5.59-9.95,3.47-3.23-1.14-6.27-1.15-8.96.94-4.63,2.8-9.55,3.4-14.66,2.55-3.96-1.24-6.86-3.98-8.49-8.49-.94-3.6-1.4-7.09-1.45-10.5-.04-3.38.93-6.77,3.08-9.38.59-.72,1.21-1.31,1.86-1.75Z"/>
  <path class="cls-1" d="M841.85,308.85c-.02.07-.02.1-.01.06,0-.01.01-.03.01-.06ZM841.86,308.79c.42-1.57,4.4-15.7,4.4-15.7,2.18-2.61,4.35-1.9,6.52,2.91.82,4.74.28,10.31-.93,16.29-3.1,14.84-1.54,28.72,4.04,41.8-.37-.14-.8-.19-1.28-.15-3.77,1.36-7.28,2-9.74-.42-4.96-2.37-9.96-2.3-15.01,1.23-1.06,1.1-2.36,1.82-3.87,2.21-1.46.38-2.98.09-4.38-.49-2.14-.89-4.13-.75-5.94.5l1.97-40.03c1.44-12.34,5.25-22.06,12.45-28.04,1.93-.95,3.05-.48,3.03,2-3.33,10.26-4.29,20.05-1.86,29.18-.23-12.44,1.91-23.35,6.98-32.34,1.91-3.17,3.77-3.35,5.58,0,.97-.01-1.66,19.29-1.96,21.05Z"/>
  <polygon class="cls-4" points="842.81 592.5 842.81 592.92 838.16 604.23 836.77 604.23 841.16 593.71 835.25 593.71 835.25 592.5 842.81 592.5"/>
  <polygon class="cls-4" points="842.81 401.23 842.81 401.65 838.16 412.96 836.77 412.96 841.16 402.44 835.25 402.44 835.25 401.23 842.81 401.23"/>
  <path class="cls-4" d="M828.68,597.6c1.94,0,2.91-.72,2.91-2.16,0-1.33-.74-2-2.22-2-.82,0-1.6.28-2.33.84v-1.31c.75-.44,1.64-.67,2.66-.67s1.78.26,2.37.79c.59.52.89,1.19.89,2.01,0,1.54-.78,2.54-2.36,2.98v.03c.85.08,1.52.38,2.02.89s.75,1.15.75,1.91c0,1.05-.38,1.9-1.13,2.55-.76.64-1.75.97-2.99.97-1.12,0-2-.21-2.66-.63v-1.45c.8.63,1.71.95,2.71.95.82,0,1.47-.21,1.96-.62.49-.4.74-.96.74-1.65,0-1.53-1.09-2.3-3.27-2.3h-.97v-1.13h.92Z"/>
  <path class="cls-4" d="M830.62,409.04l-2.71,2.68v.03h5.46v1.21h-7.07v-1.2l3.42-3.42c.87-.88,1.5-1.6,1.87-2.18s.56-1.2.56-1.86-.19-1.2-.58-1.57c-.39-.38-.94-.56-1.65-.56-1.05,0-2.06.45-3.01,1.34v-1.41c.91-.71,1.98-1.07,3.19-1.07,1.05,0,1.87.29,2.47.85.6.57.9,1.33.9,2.28,0,.76-.2,1.49-.62,2.21-.41.72-1.16,1.61-2.23,2.67Z"/>
  <path class="cls-1" d="M829.91,720.61c-10.36-13.53-15.59-33.51-15.03-60.73h.01c1.2,1.17,3.08,1.35,4.54.39,3.88-2.52,7.77-3.6,11.69-.39,1.52,1.4,3.57,1.4,6.15,0,3.77-3.3,7.39-4.47,10.8-2.82,1.52.74,3.26.99,4.78.27.34-.16.64-.35.91-.57-.4,11.75.44,22.71,2.84,32.67l3.77,28.57c.13,1.05.18,2.11.12,3.17-.42,6.88-2.16,7.8-4.61,5.53-1.35-1.26-2.23-3-2.66-4.85-3.88-16.59-9.03-31.49-15.84-44.17-1.81-1.68-3.46-1.9-5-1.05-1.56.86-2.52,2.64-2.63,4.51-.63,11.24,1.23,21.91,5.19,32.09.76,1.97,1.21,4.07,1.09,6.19-.28,5.13-2.62,4.73-6.12,1.19Z"/>
  <path class="cls-1" d="M800.6,693.68c3.43,12.03,5.19,24.11,5.21,36.24-.65,7.4-2.96,8.77-6.57,5.47-5.06-6.86-7.97-15.39-9.07-25.37-2.15-12.89-6.85-22.7-13.04-30.71-2.11-2.38-4.19-3.14-6.24-1.75-5.35,2.34-7.12,8.36-5.89,17.46.12,12.49,1.85,22.47,5.6,29.3.89,1.64,1.53,3.41,1.83,5.26.68,4.13-.58,5.34-4.83,2.08-8.34-4.11-12.06-15.4-14.36-28.92-.64-3.8-.88-7.66-.75-11.52.47-14.06.65-27.28-1.18-34.88,1.66,1.81,4.24,2.61,6.75,2.16,2.37-.42,4.85-.45,7.41-.16,2.13.24,4.17,1,6.01,2.12,3.4,2.09,7.11,1.72,11.02-.26,1.56-.79,3.3-1.13,5.05-1.13h7.61c.95.08,1.82-.08,2.61-.45-2.6,9.73-1,21.77,2.83,35.06Z"/>
  <path class="cls-1" d="M804.5,630.97c0,.91-.05,1.86-.16,2.85.07,7.46-.93,14.36-2.95,20.71-.99,2-2.18,3.4-3.62,4.08h0c-.79.38-1.66.54-2.61.46h-7.61c-1.75,0-3.49.34-5.05,1.13-3.91,1.98-7.62,2.35-11.02.26-1.84-1.12-3.88-1.88-6.01-2.12-2.56-.29-5.04-.26-7.41.16-2.51.45-5.09-.35-6.75-2.16-.51-.55-.93-1.2-1.24-1.94-.36-.88-.64-1.88-.83-3.01-1.69-6.66-2.6-13.27-2.6-19.8,0-2.18.1-4.35.31-6.52.3-3.17,2.22-6.02,5.07-7.28,6.07-2.68,12.53-1.47,19.21,1.95,2.85,1.28,5.61,1.16,8.28-.68,5.44-2.08,11.17-2.39,17.23-.6,5.44,2.29,7.76,6.63,7.76,12.51Z"/>
  <path class="cls-1" d="M800.05,358.63c2.68,8.9,2.37,16.02-1.25,21.15-4.56,5.53-9.28,8.49-14.35,5.63-4-2.75-8.08-2.31-12.21.39-1.6,1.04-3.49,1.51-5.38,1.23-7.37-1.08-12.97-5.02-16.05-12.97-.4-3.47-.16-6.73,1.22-9.62l4.19-11.15c.47-.94,1.1-1.7,1.88-2.31,2.23-1.76,5.63-2.24,9.71-1.98.78.05,1.57-.07,2.27-.42,3.43-1.68,7.5-1.38,12.08.53,2.07.68,4.66,1,7.47,1.16.78.05,1.54.26,2.22.65l3.72,2.14c.69.4,1.32.87,1.89,1.42,1.2,1.12,2.11,2.55,2.59,4.15Z"/>
  <path class="cls-1" d="M764.75,304.21c2.01-10.9,5.18-20.6,9.15-28.22,1.95-2.64,3.52-3.15,4.65-1.05.54,1.01.62,2.21.38,3.34-2.38,11.26-1.88,21.81,2.93,31.28,2.53-6.71,3.91-13.51,4.12-20.39.06-2.25,1.01-4.44,2.72-5.89,1.62-1.37,3.1-1.31,4.46-.04,1.63,1.52,2.16,3.9,1.68,6.08-6.31,28.82-8.01,53.08,2.62,65.16-.57-.55-1.2-1.02-1.89-1.42l-3.72-2.14c-.68-.39-1.44-.6-2.22-.65-2.81-.16-5.4-.48-7.47-1.16-4.58-1.91-8.65-2.21-12.08-.53-.7.35-1.49.47-2.27.42-4.08-.26-7.48.22-9.71,1.98-1.73-25.13-4.6-54.13-1.77-63.7,1.4-3.47,3.06-4.44,4.98-2.93,1.34,1.06,1.99,2.75,2.02,4.45.07,5.51.49,10.69,1.42,15.41Z"/>
  <path class="cls-4" d="M779.25,411.18c.43.56,1,.85,1.71.85.67,0,1.22-.25,1.63-.74.42-.5.63-1.12.63-1.88,0-.83-.2-1.48-.6-1.95s-.96-.7-1.68-.7-1.25.23-1.68.7-.65,1.03-.65,1.66c0,.81.21,1.49.64,2.06ZM777.13,407.8c0-2.06.44-3.7,1.32-4.93.87-1.22,2.03-1.84,3.47-1.84.82,0,1.47.12,1.95.34v1.27c-.61-.31-1.24-.47-1.91-.47-1.05,0-1.88.46-2.5,1.39-.63.93-.94,2.17-.94,3.72h.03c.55-1.1,1.44-1.66,2.69-1.66,1.02,0,1.84.33,2.44.99.61.66.91,1.54.91,2.64s-.35,2.09-1.04,2.81c-.69.73-1.57,1.1-2.64,1.1-1.18,0-2.1-.47-2.77-1.41s-1.01-2.26-1.01-3.95Z"/>
  <path class="cls-4" d="M777.13,599.3c0-2.05.44-3.7,1.32-4.92.87-1.23,2.03-1.84,3.47-1.84.82,0,1.47.11,1.95.33v1.27c-.61-.31-1.24-.47-1.91-.47-1.05,0-1.88.47-2.5,1.39-.63.93-.94,2.17-.94,3.73h.03c.55-1.11,1.44-1.66,2.69-1.66,1.02,0,1.84.33,2.44.98.61.66.91,1.54.91,2.64s-.35,2.09-1.04,2.82-1.57,1.09-2.64,1.09c-1.18,0-2.1-.47-2.77-1.41-.67-.93-1.01-2.25-1.01-3.95ZM779.25,602.68c.43.57,1,.85,1.71.85.67,0,1.22-.25,1.63-.74.42-.49.63-1.12.63-1.88,0-.83-.2-1.47-.6-1.94s-.96-.71-1.68-.71-1.25.24-1.68.71-.65,1.02-.65,1.66c0,.8.21,1.48.64,2.05Z"/>
  <path class="cls-4" d="M773.68,601.27c0-1.54-1.09-2.3-3.27-2.3h-.97v-1.14h.92c1.94,0,2.91-.72,2.91-2.16,0-1.33-.74-2-2.22-2-.82,0-1.6.28-2.33.85v-1.31c.75-.45,1.64-.67,2.67-.67s1.77.26,2.37.78c.59.53.88,1.2.88,2.01,0,1.55-.78,2.54-2.35,2.98v.03c.84.09,1.52.38,2.01.89.5.51.75,1.15.75,1.91,0,1.05-.37,1.9-1.13,2.55s-1.75.97-2.99.97c-1.11,0-2-.21-2.66-.63v-1.45c.8.63,1.71.95,2.72.95.81,0,1.47-.2,1.96-.61.48-.41.73-.96.73-1.65Z"/>
  <path class="cls-4" d="M775.05,412.96h-7.07v-1.19l3.42-3.43c.88-.87,1.5-1.6,1.87-2.18.38-.58.56-1.2.56-1.86s-.19-1.2-.58-1.57c-.38-.37-.93-.56-1.65-.56-1.05,0-2.05.45-3.01,1.34v-1.4c.92-.72,1.98-1.08,3.2-1.08,1.05,0,1.87.29,2.47.85.6.57.9,1.33.9,2.29,0,.75-.21,1.48-.62,2.2-.42.72-1.16,1.61-2.24,2.67l-2.7,2.68v.03h5.45v1.21Z"/>
  <path class="cls-1" d="M732.79,656.38l-.48.84c-7.02,9.77-15.41,9.13-25.15-1.64-1-1.11-1.83-2.36-2.47-3.71-.22-.45-.41-.92-.58-1.39-1.63-4.47-2.67-9.26-3.13-14.38-.69-4.2-.02-7.51,2.1-9.86,11.25-14.19,22.25-14.48,32.98,1.4,2.01,3.81,2.68,7.91,2.01,12.3-1.26,6.21-2.86,11.93-5.28,16.44Z"/>
  <path class="cls-1" d="M707.73,352.35h0c1.13-3.11,3.1-5.86,5.86-7.69,4.95-3.29,10.37-2.61,16.16,1.25,1.47,1.84,2.77,3.7,3.91,5.57,4.84,7.96,6.71,16.21,5.16,24.8-1.94,4.42-4.96,7.75-9.07,10-4.06,2.34-7.79,2.51-11.05-.47-5.19-3.3-9.85-7.51-13.96-12.68-.52-.88-.87-1.98-1.08-3.26-.53-3.2-.03-6.53,1.4-9.45.93-1.88,1.58-3.85,2.03-5.87.17-.75.38-1.48.64-2.2Z"/>
  <path class="cls-1" d="M732.79,656.38l-6.5,27.62c-2.83,17.74-2.99,35.26,0,52.53.41,6.85-2.32,6.35-6.98,1.31-4.7-4.02-7.36-18.95-9.25-37.96l-5.37-48.01c.64,1.35,1.47,2.6,2.47,3.71,9.74,10.77,18.13,11.41,25.15,1.64l.48-.84Z"/>
  <path class="cls-1" d="M729.75,345.91c-5.79-3.86-11.21-4.54-16.16-1.25-2.76,1.83-4.73,4.58-5.86,7.68,4.73-48.76,8.73-72.82,12.25-79.96,2.12-4.54,4.28-5.48,6.48-2.02,1.16,1.81,1.63,3.98,1.56,6.14-.91,25.74.49,50.86,5.64,74.98-1.14-1.87-2.44-3.73-3.91-5.57Z"/>
  <path class="cls-4" d="M725.38,597.23c1.25,0,2.22.32,2.91.95s1.03,1.49,1.03,2.58-.37,2.05-1.11,2.75c-.74.69-1.75,1.03-3.04,1.03-1.08,0-1.89-.16-2.43-.48v-1.42c.81.52,1.62.77,2.45.77s1.5-.23,2-.7c.51-.47.77-1.09.77-1.86s-.26-1.37-.78-1.8-1.26-.65-2.23-.65c-.32,0-.94.03-1.84.1v-5.88h5.68v1.21h-4.41v3.43c.36-.02.69-.03,1-.03Z"/>
  <path class="cls-4" d="M725.19,412.03c.83,0,1.5-.24,2-.71.51-.47.77-1.09.77-1.86s-.26-1.37-.78-1.8-1.26-.65-2.23-.65c-.32,0-.94.03-1.84.1v-5.88h5.68v1.21h-4.41v3.43c.36-.02.69-.03,1-.03,1.25,0,2.22.32,2.91.95s1.03,1.49,1.03,2.59-.37,2.04-1.11,2.74c-.74.69-1.75,1.04-3.04,1.04-1.08,0-1.89-.17-2.43-.49v-1.42c.81.52,1.62.78,2.45.78Z"/>
  <path class="cls-4" d="M718.44,595.55c0-1.33-.74-1.99-2.21-1.99-.83,0-1.6.28-2.34.84v-1.31c.76-.44,1.64-.67,2.67-.67s1.78.26,2.37.79c.59.52.89,1.19.89,2.01,0,1.54-.79,2.53-2.36,2.98v.03c.85.08,1.52.38,2.02.89s.75,1.14.75,1.91c0,1.05-.38,1.9-1.14,2.54-.75.65-1.75.97-2.99.97-1.11,0-2-.21-2.66-.63v-1.44c.81.63,1.71.94,2.72.94.82,0,1.47-.2,1.96-.61s.73-.96.73-1.65c0-1.53-1.09-2.3-3.26-2.3h-.98v-1.14h.93c1.93,0,2.9-.72,2.9-2.16Z"/>
  <path class="cls-4" d="M718.43,402.73c-.39-.38-.94-.56-1.66-.56-1.04,0-2.05.45-3.01,1.34v-1.41c.92-.71,1.99-1.07,3.2-1.07,1.05,0,1.87.29,2.47.85.6.57.9,1.33.9,2.28,0,.76-.21,1.49-.62,2.21s-1.16,1.61-2.23,2.67l-2.71,2.68v.03h5.46v1.21h-7.07v-1.2l3.42-3.42c.87-.88,1.49-1.6,1.87-2.18.37-.58.56-1.2.56-1.86s-.2-1.2-.58-1.57Z"/>
  <path class="cls-1" d="M688.76,626.85c1.86,3.1,2.67,6.75,2.01,11.17-.29,6.43-1.31,12.75-3.09,18.96-.75,2.62-2.44,4.9-4.8,6.26-6.39,3.68-13.14,2.45-20.25-3.74-.9-.78-1.66-1.73-2.2-2.8-2.56-5.03-4.81-12.46-5-14.01-1.74-6.36-1.3-11.88,1.39-16.54,9.76-15.9,20.47-14.54,31.94.7Z"/>
  <path class="cls-1" d="M663.43,349.16s.03-.07.05-.11c.57-1.27.88-2.55,1.73-3.7.76-1.06,1.75-1.95,2.88-2.6,4.76-2.74,10-1.48,15.68,3.31,1.76,1.49,3.09,3.44,3.88,5.62,2.99,8.31,4.53,16.17,2.97,23.1-.21.92-.6,1.8-1.1,2.59-9.24,14.65-19.32,14.09-30.15.07-1.77-3.15-2.84-6.68-2.79-10.3.03-2.98.58-6.15,2.22-8.69,1.86-2.86,3.25-6.15,4.63-9.29Z"/>
  <path class="cls-1" d="M687.68,656.98l-6.6,23.62c-3.6,17.43-5.3,34.23-2.83,49.65.28,1.81.07,3.7-.86,5.27-1.79,3.03-4.06,2.23-6.69-1.43-6.61-6.46-6.99-20.09-6.91-34.25.01-1.08-.03-2.15-.11-3.22l-3.25-39.92c.54,1.07,1.3,2.02,2.2,2.8,7.11,6.19,13.86,7.42,20.25,3.74,2.36-1.36,4.05-3.64,4.8-6.26Z"/>
  <path class="cls-4" d="M679.08,403.37l-3.6,5.38h4.05v-5.07c0-.36.01-.76.04-1.21h-.04c-.07.2-.22.5-.45.9ZM674.02,408.97l5.22-7.74h1.62v7.52h1.5v1.09h-1.5v3.12h-1.33v-3.12h-5.51v-.87Z"/>
  <path class="cls-4" d="M679.08,594.76l-3.6,5.38h4.05v-5.07c0-.36.01-.76.04-1.21h-.04c-.07.2-.22.5-.45.9ZM679.53,601.23h-5.51v-.87l5.22-7.74h1.62v7.52h1.5v1.09h-1.5v3.12h-1.33v-3.12Z"/>
  <path class="cls-4" d="M670.94,595.55c0-1.33-.74-1.99-2.21-1.99-.83,0-1.6.28-2.33.84v-1.31c.75-.44,1.64-.67,2.66-.67s1.78.26,2.37.79c.59.52.89,1.19.89,2.01,0,1.54-.79,2.53-2.36,2.98v.03c.85.08,1.52.38,2.02.89s.75,1.14.75,1.91c0,1.05-.38,1.9-1.14,2.54-.75.65-1.75.97-2.99.97-1.11,0-1.99-.21-2.65-.63v-1.44c.8.63,1.7.94,2.71.94.82,0,1.47-.2,1.96-.61s.73-.96.73-1.65c0-1.53-1.09-2.3-3.26-2.3h-.97v-1.14h.92c1.94,0,2.9-.72,2.9-2.16Z"/>
  <path class="cls-4" d="M670.93,402.73c-.39-.38-.94-.56-1.65-.56-1.05,0-2.06.45-3.02,1.34v-1.41c.92-.71,1.99-1.07,3.2-1.07,1.05,0,1.87.29,2.47.85.6.57.9,1.33.9,2.28,0,.76-.2,1.49-.62,2.21-.41.72-1.16,1.61-2.23,2.67l-2.71,2.68v.03h5.46v1.21h-7.07v-1.2l3.42-3.42c.87-.88,1.49-1.6,1.87-2.18.37-.58.56-1.2.56-1.86s-.19-1.2-.58-1.57Z"/>
  <path class="cls-1" d="M665.21,345.35c-.85,1.15-1.16,2.43-1.73,3.7-.02.04-.03.07-.05.11-.44-15.96,1.06-31.4,4.32-46.41,1.79-8.36,2.78-17.55,3.21-27.31.17-3.63,1.6-7.16,4.24-9.67,2.74-2.6,5.11-2.41,7.06.93,1.57,2.7,1.98,5.93,1.36,8.99-1.48,7.25-2.21,15.02-2.5,23.1.29,18.85,2.44,36.5,6.53,52.89-.79-2.18-2.12-4.13-3.88-5.62-5.68-4.79-10.92-6.05-15.68-3.31-1.13.65-2.12,1.54-2.88,2.6Z"/>
      <path class="cls-1" style="fill: rgba(6, 182, 212, 0.2); fill-opacity: 1; stroke: #67e8f9; stroke-opacity: 1; stroke-width: 1.1; filter: url(#soft-outline);" d="M639.35,624.67c2.39,3.1,3.61,7.11,3.66,12.04-1.08,10.07-2.72,19.44-5.25,27.72-.27.89-.66,1.75-1.18,2.53-5.68,8.45-12.67,9.13-21.41-.55-1.22-1.36-2.2-2.92-2.92-4.59-.94-2.15-1.78-4.42-2.52-6.8-1.01-3.13-1.85-6.46-2.58-9.93-.94-8.29-.34-15.37,2.88-20.42,6.31-14.18,16.75-11.42,29.32,0Z"/>
  <path class="cls-1" d="M637.33,343.63c.2.61.37,1.25.49,1.89,1,5.27,2.66,10.51,4.82,15.75,2.01,7.67,1.25,14.05-2.91,18.84-12.1,14.43-18.63,12.22-29.32-4.3-2-3.45-2.5-7.13-1.28-11.07,2.02-5.73,3.28-12.34,4.08-19.48.16-1.36.51-2.7,1.04-3.94,1.17-2.76,3.25-5.08,6.02-6.36,2.87-1.32,5.79-1.36,8.76-.22,3.99,1.52,6.97,4.87,8.3,8.89Z"/>
  <path class="cls-4" d="M629.88,412.03c.81,0,1.47-.21,1.96-.62.48-.41.73-.96.73-1.65,0-1.53-1.09-2.3-3.27-2.3h-.97v-1.13h.92c1.94,0,2.91-.72,2.91-2.16,0-1.33-.74-2-2.22-2-.82,0-1.6.28-2.33.84v-1.31c.75-.44,1.64-.67,2.67-.67s1.77.27,2.37.79c.59.52.88,1.19.88,2.01,0,1.54-.78,2.54-2.35,2.98v.03c.84.08,1.51.38,2.01.89s.75,1.15.75,1.91c0,1.05-.38,1.9-1.13,2.55-.76.64-1.75.97-2.99.97-1.11,0-2-.21-2.66-.63v-1.45c.8.63,1.71.95,2.72.95Z"/>
  <path class="cls-4" d="M632.81,603.81c-.76.64-1.75.97-2.99.97-1.11,0-2-.21-2.66-.63v-1.45c.8.63,1.71.95,2.72.95.81,0,1.47-.21,1.96-.62.48-.41.73-.96.73-1.65,0-1.53-1.09-2.3-3.27-2.3h-.97v-1.13h.92c1.94,0,2.91-.72,2.91-2.16,0-1.33-.74-2-2.22-2-.82,0-1.6.28-2.33.84v-1.31c.75-.44,1.64-.67,2.67-.67s1.77.26,2.37.79c.59.52.88,1.19.88,2.01,0,1.54-.78,2.54-2.35,2.98v.03c.84.08,1.51.38,2.01.89s.75,1.15.75,1.91c0,1.05-.38,1.9-1.13,2.55Z"/>
  <path class="cls-4" d="M620.22,597.95c1.94,0,2.91-.72,2.91-2.16,0-1.33-.74-2-2.22-2-.82,0-1.6.28-2.33.84v-1.31c.75-.44,1.64-.67,2.67-.67s1.77.26,2.36.79c.6.52.89,1.19.89,2.01,0,1.54-.78,2.54-2.35,2.98v.03c.84.08,1.51.38,2.01.89s.75,1.15.75,1.91c0,1.05-.38,1.9-1.13,2.55-.76.64-1.75.97-2.99.97-1.11,0-2-.21-2.66-.63v-1.45c.8.63,1.71.95,2.72.95.81,0,1.47-.21,1.95-.62.49-.41.74-.96.74-1.65,0-1.53-1.09-2.3-3.27-2.3h-.97v-1.13h.92Z"/>
  <path class="cls-4" d="M623.13,406.16c.38-.58.56-1.2.56-1.86s-.19-1.2-.58-1.57c-.38-.37-.94-.56-1.65-.56-1.05,0-2.05.45-3.01,1.34v-1.4c.92-.72,1.98-1.08,3.2-1.08,1.04,0,1.87.29,2.47.85.6.57.9,1.33.9,2.29,0,.75-.21,1.48-.62,2.2-.42.72-1.16,1.61-2.24,2.67l-2.7,2.68v.03h5.45v1.21h-7.07v-1.19l3.42-3.43c.88-.87,1.5-1.6,1.87-2.18Z"/>
  <path class="cls-1" d="M614.24,341.32l3.68-31.44,3.14-34.72c.61-13.48,1.15-24.66,5.75-30.87.41-.54.82-1.08,1.14-1.68,1.37-2.51,2.59-2.82,3.61.05.55,1.55.61,3.22.34,4.84-1.75,10.42-.6,23.07,1.6,36.52,3.62,22.03,5.1,42.1,3.83,59.61-1.33-4.02-4.31-7.37-8.3-8.89-2.97-1.14-5.89-1.1-8.76.22-2.77,1.28-4.85,3.6-6.02,6.36h-.01Z"/>
  <path class="cls-1" d="M612.25,661.82c.72,1.67,1.7,3.23,2.92,4.59,8.74,9.68,15.73,9,21.41.55.52-.78.91-1.64,1.18-2.53-4.16,33.7-8.52,67.62-3.49,90.21.53,2.39.37,4.92-.65,7.14-1.54,3.37-3.88,3.17-6.94-.26-1.68-1.89-2.9-4.14-3.74-6.54-8.31-23.83-11.43-60.29-13.22-99.96h.01c.74,2.38,1.58,4.65,2.52,6.8Z"/>
  <path class="cls-1" d="M590.39,619.61c1.69,2.46,2.36,5.56,2.04,9.28-1.56,10.66-3.57,20.37-6.4,28.39-5.08,11.9-11.96,11.46-20.69-1.73-.53-.8-.99-1.63-1.37-2.5-.87-1.89-1.4-3.93-1.6-6.01-.81-8.38-.98-17.26-.66-26.53.39-3.24,1.95-4.59,4.31-4.65l19.91,1.35c1.77.12,3.46.95,4.46,2.4Z"/>
      <path class="cls-1" style="fill: rgba(34, 197, 94, 0.2); fill-opacity: 1; stroke: #86efac; stroke-opacity: 1; stroke-width: 1.1; filter: url(#soft-outline);" d="M588.53,344.34c.29,1.09.46,2.22.5,3.35.22,6.41.53,12.9,1.49,19.13.14.93.24,1.87.28,2.82l.18,4.3c.1,1.96-.48,5.78-1.75,8.19-.56,1.05-1.57,1.78-2.73,2.02-6.05,1.25-12.93,1.53-20.44,1.1-3.45-1.54-4.55-3.99-4.37-7.7l5.42-29.96c.35-1.99,1.09-3.89,2.18-5.57.56-.87,1.21-1.69,1.95-2.43,4.99-5.03,9.6-5.71,13.75-1.53,1.74,1.74,2.93,3.92,3.54,6.28Z"/>
  <path class="cls-1" d="M584.28,732.97c.39,1.76.45,3.6-.07,5.32-1.04,3.5-3.4,3.34-7.18-.74-7.64-5.47-10.39-46.84-13.06-84.5.38.87.84,1.7,1.37,2.5,8.73,13.19,15.61,13.63,20.69,1.73-5.4,28.33-6.56,53.93-1.75,75.69Z"/>
  <path class="cls-4" d="M586.2,404.05c0,.75-.21,1.49-.62,2.2-.41.72-1.16,1.61-2.23,2.67l-2.71,2.68v.03h5.46v1.21h-7.07v-1.19l3.42-3.43c.87-.87,1.49-1.6,1.87-2.18.37-.58.56-1.2.56-1.86s-.2-1.2-.58-1.57c-.39-.37-.94-.56-1.66-.56-1.04,0-2.05.45-3.01,1.34v-1.4c.92-.72,1.99-1.07,3.2-1.07,1.05,0,1.87.28,2.47.85.6.56.9,1.32.9,2.28Z"/>
  <path class="cls-4" d="M586.2,595.67c0,.75-.21,1.49-.62,2.2-.41.72-1.16,1.61-2.23,2.68l-2.71,2.67v.03h5.46v1.21h-7.07v-1.19l3.42-3.43c.87-.87,1.49-1.6,1.87-2.18.37-.58.56-1.2.56-1.86s-.2-1.2-.58-1.57c-.39-.37-.94-.56-1.66-.56-1.04,0-2.05.45-3.01,1.35v-1.41c.92-.72,1.99-1.07,3.2-1.07,1.05,0,1.87.28,2.47.85.6.56.9,1.33.9,2.28Z"/>
  <path class="cls-4" d="M572.38,597.83c1.93,0,2.9-.72,2.9-2.16,0-1.33-.74-2-2.21-2-.83,0-1.6.28-2.34.85v-1.31c.76-.45,1.64-.67,2.67-.67s1.78.26,2.37.78c.59.53.89,1.2.89,2.01,0,1.55-.79,2.54-2.36,2.98v.03c.84.09,1.52.38,2.02.89s.75,1.15.75,1.91c0,1.05-.38,1.9-1.14,2.55-.75.65-1.75.97-2.99.97-1.11,0-2-.21-2.66-.63v-1.45c.81.63,1.71.95,2.72.95.82,0,1.47-.2,1.96-.61s.73-.96.73-1.65c0-1.54-1.09-2.3-3.26-2.3h-.98v-1.14h.93Z"/>
  <path class="cls-4" d="M575.27,402.61c-.39-.37-.94-.56-1.66-.56-1.04,0-2.05.45-3.01,1.34v-1.4c.92-.72,1.98-1.07,3.2-1.07,1.05,0,1.87.28,2.47.85.6.56.9,1.32.9,2.28,0,.75-.21,1.49-.62,2.2-.41.72-1.16,1.61-2.23,2.67l-2.71,2.68v.03h5.46v1.21h-7.07v-1.19l3.42-3.43c.87-.87,1.49-1.6,1.87-2.18.37-.58.56-1.2.56-1.86s-.2-1.2-.58-1.57Z"/>
  <path class="cls-1" d="M569.29,342.02c2.9-26.43,11.34-51.41,7.5-71.04-.43-2.18-.37-4.45.46-6.51.97-2.44,2.43-2.92,4.5-.94,1.02.98,1.78,2.2,2.31,3.52,7.13,17.65,3.46,44.63,4.47,77.29-.61-2.36-1.8-4.54-3.54-6.28-4.15-4.18-8.76-3.5-13.75,1.53-.74.74-1.39,1.56-1.95,2.43Z"/>
  <path class="cls-1" d="M512.35,342.81c.32-1.42.62-2.85.91-4.28,7.18-17.17,24.78-17.28,30.25,0,1.23,6.33,3.02,12.64,5.34,18.92,1.86,5.04,2.49,10.51,1.48,15.78-1.18,6.2-4.14,10.69-8.22,12.14-7.75,2.28-18.23,1.35-29.8.67-1.38-.08-2.75-.53-3.83-1.4-4.24-3.42-5.66-8.56-3.95-15.58,3.21-8.48,5.82-17.22,7.82-26.25Z"/>
  <path class="cls-1" d="M538.77,618.46c.52.88.79,1.91.75,2.94-.45,13.43-1.65,25.85-4.29,36.29-.7,2.76-2.63,5.09-5.27,6.18-4.42,1.83-8.22.7-11.29-4.01-.6-.92-1.1-1.89-1.53-2.9-.57-1.33-.99-2.72-1.29-4.13-2.46-11.63-3.74-23.04-2.9-34.07.06-.74.4-1.43.95-1.93,1.02-.92,2.35-1.42,3.72-1.39l17.19.37c1.51.03,2.9.84,3.67,2.14l.29.51Z"/>
  <path class="cls-1" d="M536.29,262.61c.48,24.54,2.99,49.9,7.22,75.92-5.47-17.28-23.07-17.17-30.25,0-.29,1.43-.59,2.86-.91,4.28l8.52-57.32c.12-.83.19-1.66.22-2.5.31-10.63,1.79-19.3,6.23-22.94,5.2-8.16,7.9-6.1,8.97,2.56Z"/>
  <path class="cls-1" d="M534.89,724.65c.55,1.75.74,3.62.26,5.38-.97,3.5-3.26,2.86-6.52-.74-8.54-10.84-9.83-42.09-11.49-72.33.43,1.01.93,1.98,1.53,2.9,3.07,4.71,6.87,5.84,11.29,4.01,2.64-1.09,4.57-3.42,5.27-6.18-1.9,26.53-4.32,54.31-.34,66.96Z"/>
  <polygon class="cls-4" points="532.75 592.41 532.75 603.23 535.39 603.23 535.39 604.4 528.76 604.4 528.76 603.23 531.41 603.23 531.41 594.11 528.69 594.92 528.69 593.65 532.75 592.41"/>
  <polygon class="cls-4" points="532.75 400.97 532.75 411.78 535.39 411.78 535.39 412.96 528.76 412.96 528.76 411.78 531.41 411.78 531.41 402.67 528.69 403.48 528.69 402.2 532.75 400.97"/>
  <path class="cls-4" d="M521.45,597.77c1.94,0,2.91-.72,2.91-2.16,0-1.33-.74-1.99-2.22-1.99-.82,0-1.6.28-2.33.84v-1.31c.75-.45,1.64-.67,2.67-.67s1.77.26,2.36.78c.6.53.89,1.2.89,2.02,0,1.54-.78,2.53-2.36,2.97v.04c.85.08,1.52.37,2.02.88s.75,1.15.75,1.91c0,1.06-.38,1.91-1.13,2.55-.76.65-1.76.97-2.99.97-1.12,0-2-.21-2.66-.63v-1.45c.8.64,1.7.95,2.71.95.82,0,1.48-.2,1.96-.61.49-.41.73-.96.73-1.65,0-1.54-1.08-2.3-3.26-2.3h-.97v-1.14h.92Z"/>
  <path class="cls-4" d="M523.39,409.04l-2.71,2.68v.03h5.46v1.21h-7.07v-1.19l3.42-3.43c.87-.87,1.5-1.6,1.87-2.18s.56-1.2.56-1.86-.19-1.2-.58-1.57-.94-.56-1.65-.56c-1.05,0-2.05.45-3.01,1.34v-1.4c.91-.72,1.98-1.08,3.19-1.08,1.05,0,1.88.29,2.48.85.6.57.9,1.33.9,2.29,0,.75-.21,1.48-.63,2.2-.41.72-1.15,1.61-2.23,2.67Z"/>
      <path class="cls-1" style="fill: rgba(234, 179, 8, 0.2); fill-opacity: 1; stroke: #fde047; stroke-opacity: 1; stroke-width: 1.1; filter: url(#soft-outline);" d="M487.55,342.78c2,9.03,4.61,17.77,7.82,26.25,1.7,7.02.29,12.15-3.96,15.58-1.07.87-2.44,1.32-3.82,1.4-11.57.68-22.05,1.61-29.8-.68-4.08-1.44-7.04-5.93-8.22-12.13-1.01-5.28-.38-10.74,1.48-15.78,2.32-6.28,4.11-12.59,5.34-18.92,5.47-17.29,23.07-17.17,30.25,0,.29,1.43.59,2.86.91,4.28Z"/>
  <path class="cls-1" d="M479.03,285.46l8.52,57.32c-.32-1.42-.62-2.85-.91-4.28-7.18-17.17-24.78-17.29-30.25,0,4.23-26.03,6.74-51.38,7.22-75.92,1.07-8.67,3.76-10.72,8.97-2.56,4.44,3.64,5.92,12.31,6.23,22.94.03.83.1,1.67.22,2.5Z"/>
  <path class="cls-1" d="M482.09,658.16c-.42,1-.93,1.97-1.52,2.88-3.07,4.71-6.87,5.84-11.29,4.01-2.64-1.1-4.57-3.42-5.27-6.19-2.64-10.44-3.84-22.85-4.29-36.29-.04-1.03.22-2.05.75-2.94l.29-.5c.77-1.3,2.15-2.11,3.67-2.15l17.18-.36c1.38-.03,2.71.46,3.72,1.38.56.5.9,1.19.96,1.93.84,11.04-.44,22.45-2.91,34.08-.3,1.42-.72,2.82-1.29,4.15Z"/>
  <path class="cls-1" d="M480.57,661.04c.59-.91,1.1-1.88,1.52-2.88-1.65,30.23-2.94,61.47-11.49,72.31-3.25,3.6-5.55,4.24-6.51.74-.49-1.76-.29-3.63.26-5.38,3.98-12.66,1.56-40.43-.34-66.97.7,2.77,2.63,5.09,5.27,6.19,4.42,1.83,8.22.7,11.29-4.01Z"/>
  <polygon class="cls-4" points="477.31 593.94 474.59 594.75 474.59 593.47 478.65 592.24 478.65 603.05 481.29 603.05 481.29 604.23 474.66 604.23 474.66 603.05 477.31 603.05 477.31 593.94"/>
  <polygon class="cls-4" points="479.7 412.96 473.06 412.96 473.06 411.78 475.71 411.78 475.71 402.67 473 403.48 473 402.2 477.06 400.97 477.06 411.78 479.7 411.78 479.7 412.96"/>
  <polygon class="cls-4" points="470.67 412.96 464.03 412.96 464.03 411.78 466.68 411.78 466.68 402.67 463.97 403.48 463.97 402.2 468.03 400.97 468.03 411.78 470.67 411.78 470.67 412.96"/>
  <path class="cls-4" d="M469.82,600.03v-5.08c0-.36.01-.76.03-1.21h-.03c-.08.2-.23.5-.45.9l-3.61,5.39h4.06ZM469.82,601.11h-5.52v-.87l5.22-7.74h1.62v7.53h1.51v1.08h-1.51v3.12h-1.32v-3.12Z"/>
  <path class="cls-1" d="M411.13,344.26c.63-2.34,1.81-4.51,3.53-6.24,4.16-4.17,8.76-3.49,13.76,1.54.74.74,1.39,1.56,1.95,2.43,1.09,1.68,1.83,3.57,2.17,5.56l5.43,29.97c.17,3.71-.93,6.16-4.37,7.7-7.51.43-14.4.14-20.45-1.1-1.16-.24-2.17-.98-2.72-2.02-1.28-2.42-1.85-6.23-1.76-8.2l.19-4.29c.04-.95.14-1.89.28-2.82.96-6.23,1.27-12.72,1.49-19.13.04-1.15.21-2.29.5-3.4Z"/>
  <path class="cls-3" d="M437.66,621.69c.33,9.27.16,18.15-.65,26.52-.21,2.09-.74,4.12-1.6,6.02-.39.87-.85,1.7-1.38,2.5-8.72,13.18-15.6,13.63-20.68,1.72-2.83-8.01-4.84-17.72-6.4-28.38-.33-3.73.35-6.82,2.04-9.28,1-1.45,2.69-2.29,4.45-2.41l19.92-1.34c2.35.06,3.91,1.41,4.3,4.65Z"/>
  <path class="cls-1" d="M434.03,656.73c.53-.8.99-1.63,1.38-2.5-2.67,37.66-5.43,79.03-13.07,84.5-3.78,4.08-6.14,4.24-7.18.74-.51-1.72-.46-3.56-.07-5.32,4.82-21.76,3.66-47.37-1.74-75.7,5.08,11.91,11.96,11.46,20.68-1.72Z"/>
  <path class="cls-1" d="M422.87,270.95c-3.84,19.63,4.6,44.61,7.5,71.04-.56-.87-1.21-1.69-1.95-2.43-5-5.03-9.6-5.71-13.76-1.54-1.72,1.73-2.9,3.9-3.53,6.24.99-32.64-2.65-59.6,4.46-77.25.54-1.31,1.3-2.54,2.32-3.52,2.07-1.97,3.52-1.49,4.5.94.83,2.06.88,4.34.46,6.52Z"/>
  <path class="cls-4" d="M423.13,603.01l3.42-3.43c.87-.87,1.49-1.6,1.87-2.18.37-.58.56-1.2.56-1.86s-.2-1.2-.58-1.57c-.39-.37-.94-.56-1.66-.56-1.04,0-2.05.45-3.01,1.34v-1.4c.92-.72,1.98-1.08,3.2-1.08,1.05,0,1.87.29,2.47.86.6.56.9,1.32.9,2.28,0,.75-.21,1.49-.62,2.2-.41.72-1.16,1.61-2.23,2.67l-2.71,2.68v.03h5.45v1.21h-7.06v-1.19Z"/>
  <path class="cls-4" d="M426.89,402.73c-.39-.38-.94-.56-1.65-.56-1.05,0-2.05.45-3.01,1.34v-1.41c.91-.71,1.98-1.07,3.2-1.07,1.04,0,1.87.29,2.47.85.6.57.9,1.33.9,2.28,0,.76-.21,1.49-.63,2.21-.41.72-1.15,1.61-2.23,2.67l-2.71,2.68v.03h5.46v1.21h-7.07v-1.2l3.42-3.42c.87-.88,1.5-1.6,1.87-2.18s.56-1.2.56-1.86-.19-1.2-.58-1.57Z"/>
  <polygon class="cls-4" points="417.24 411.78 419.88 411.78 419.88 412.96 413.25 412.96 413.25 411.78 415.9 411.78 415.9 402.67 413.18 403.48 413.18 402.2 417.24 400.97 417.24 411.78"/>
  <path class="cls-4" d="M418.94,600v-5.07c0-.36.01-.77.03-1.22h-.03c-.08.2-.23.5-.45.9l-3.61,5.39h4.06ZM420.26,592.47v7.53h1.51v1.08h-1.51v3.12h-1.32v-3.12h-5.51v-.87l5.21-7.74h1.62Z"/>
  <path class="cls-1" d="M389.34,625.85c3.23,5.04,3.83,12.13,2.88,20.42-.72,3.47-1.57,6.8-2.57,9.93-.74,2.38-1.58,4.65-2.52,6.8-.73,1.67-1.71,3.23-2.93,4.59-8.73,9.68-15.72,9-21.41.54-.52-.77-.9-1.63-1.18-2.53-2.53-8.27-4.17-17.64-5.25-27.71.06-4.93,1.27-8.95,3.67-12.04,12.56-11.42,23.01-14.18,29.31,0Z"/>
  <path class="cls-1" d="M391.45,364.71c1.22,3.94.73,7.62-1.28,11.07-10.69,16.52-17.21,18.73-29.31,4.3-4.17-4.79-4.93-11.17-2.91-18.85,2.16-5.23,3.81-10.48,4.82-15.75.12-.63.28-1.25.48-1.86,1.32-4.02,4.31-7.39,8.31-8.92,2.96-1.13,5.89-1.1,8.76.23,2.77,1.27,4.84,3.59,6.03,6.35h0c.53,1.25.88,2.58,1.03,3.94.79,7.15,2.05,13.76,4.07,19.49Z"/>
  <path class="cls-1" d="M389.66,656.2c-1.8,39.67-4.91,76.13-13.23,99.96-.83,2.39-2.05,4.64-3.73,6.53-3.06,3.44-5.4,3.64-6.95.27-1.02-2.23-1.18-4.75-.65-7.14,5.03-22.59.68-56.51-3.49-90.22.28.9.66,1.76,1.18,2.53,5.69,8.46,12.68,9.14,21.41-.54,1.22-1.36,2.2-2.92,2.93-4.59.94-2.15,1.78-4.42,2.52-6.8h.01Z"/>
  <path class="cls-1" d="M382.66,309.85l3.69,31.43c-1.19-2.76-3.26-5.08-6.03-6.35-2.87-1.33-5.8-1.36-8.76-.23-4,1.53-6.99,4.9-8.31,8.92-1.27-17.52.22-37.59,3.83-59.64,2.2-13.45,3.35-26.09,1.61-36.51-.27-1.62-.21-3.29.34-4.84,1.01-2.88,2.24-2.56,3.61-.05.32.59.73,1.14,1.13,1.68,4.61,6.21,5.15,17.39,5.75,30.86l3.14,34.73Z"/>
  <path class="cls-4" d="M381.22,603.6c-.76.64-1.76.97-2.99.97-1.12,0-2-.21-2.66-.63v-1.45c.8.63,1.7.95,2.71.95.82,0,1.47-.21,1.96-.62s.73-.96.73-1.65c0-1.53-1.08-2.3-3.26-2.3h-.97v-1.13h.92c1.94,0,2.91-.72,2.91-2.16,0-1.33-.74-2-2.22-2-.82,0-1.6.28-2.33.84v-1.31c.75-.44,1.64-.67,2.66-.67s1.78.26,2.37.79c.59.52.89,1.19.89,2.01,0,1.54-.78,2.54-2.36,2.98v.03c.85.08,1.52.38,2.02.89s.75,1.15.75,1.91c0,1.05-.38,1.9-1.13,2.55Z"/>
  <path class="cls-4" d="M379.06,403.7c0-1.33-.74-2-2.22-2-.82,0-1.6.28-2.33.85v-1.31c.75-.45,1.64-.67,2.67-.67s1.78.26,2.37.78c.59.53.89,1.2.89,2.01,0,1.55-.79,2.54-2.36,2.98v.04c.84.08,1.52.37,2.02.88.49.51.74,1.15.74,1.91,0,1.06-.37,1.9-1.13,2.55-.75.65-1.75.97-2.99.97-1.11,0-2-.21-2.66-.63v-1.45c.8.64,1.71.95,2.72.95.82,0,1.47-.2,1.96-.61s.73-.96.73-1.65c0-1.54-1.09-2.3-3.26-2.3h-.98v-1.14h.93c1.93,0,2.9-.72,2.9-2.16Z"/>
  <polygon class="cls-4" points="369.39 400.5 369.39 411.32 372.03 411.32 372.03 412.49 365.4 412.49 365.4 411.32 368.05 411.32 368.05 402.2 365.33 403.01 365.33 401.74 369.39 400.5"/>
  <path class="cls-4" d="M365.58,600.38l5.22-7.74h1.62v7.53h1.5v1.08h-1.5v3.12h-1.33v-3.12h-5.51v-.87ZM371.13,593.88h-.04c-.07.2-.22.5-.45.9l-3.6,5.39h4.05v-5.08c0-.36.01-.76.04-1.21Z"/>
  <path class="cls-1" d="M337.15,349.13c1.38,3.13,2.78,6.42,4.64,9.29,1.64,2.53,2.19,5.71,2.22,8.68.04,3.63-1.03,7.16-2.79,10.31-10.84,14.02-20.92,14.58-30.15-.07-.51-.79-.9-1.67-1.1-2.59-1.56-6.93-.02-14.8,2.97-23.11.78-2.17,2.12-4.12,3.88-5.61,5.67-4.79,10.92-6.05,15.68-3.31,1.12.65,2.11,1.54,2.88,2.59.84,1.16,1.16,2.44,1.72,3.71.02.04.03.07.05.11Z"/>
  <path class="cls-4" d="M332.34,593.71h-.03c-.08.2-.23.5-.45.9l-3.61,5.39h4.06v-5.07c0-.36,0-.77.03-1.22ZM326.79,600.21l5.22-7.74h1.62v7.53h1.51v1.08h-1.51v3.12h-1.32v-3.12h-5.52v-.87Z"/>
  <path class="cls-4" d="M325.29,408.85l5.22-7.74h1.62v7.53h1.5v1.09h-1.5v3.11h-1.33v-3.11h-5.51v-.88ZM330.35,403.26l-3.6,5.38h4.05v-5.07c0-.36.01-.77.04-1.21h-.04c-.07.19-.22.49-.45.9Z"/>
  <polygon class="cls-4" points="321.58 400.85 321.58 411.66 324.22 411.66 324.22 412.84 317.58 412.84 317.58 411.66 320.23 411.66 320.23 402.55 317.52 403.36 317.52 402.09 321.58 400.85"/>
  <path class="cls-4" d="M319.22,600h4.06v-5.07c0-.36.01-.77.03-1.22h-.03c-.08.2-.23.5-.45.9l-3.61,5.39ZM323.28,601.08h-5.52v-.87l5.22-7.74h1.62v7.53h1.51v1.08h-1.51v3.12h-1.32v-3.12Z"/>
  <path class="cls-1" d="M312.94,351.64c4.09-16.38,6.23-34.03,6.52-52.88-.29-8.08-1.01-15.85-2.49-23.1-.62-3.06-.21-6.29,1.36-8.99,1.95-3.34,4.31-3.54,7.06-.93,2.63,2.51,4.07,6.04,4.23,9.67.44,9.76,1.43,18.95,3.22,27.31,3.25,15.01,4.76,30.46,4.31,46.41-.02-.04-.03-.07-.05-.11-.56-1.27-.88-2.55-1.72-3.71-.77-1.05-1.76-1.94-2.88-2.59-4.76-2.74-10.01-1.48-15.68,3.31-1.76,1.49-3.1,3.44-3.88,5.61Z"/>
  <path class="cls-1" d="M318.29,681.78l-6.6-23.62c.75,2.62,2.44,4.9,4.8,6.26,6.39,3.67,13.14,2.45,20.25-3.74.9-.79,1.66-1.73,2.2-2.8l-3.24,39.92c-.09,1.07-.12,2.14-.12,3.21.08,14.17-.3,27.8-6.9,34.26-2.63,3.66-4.9,4.45-6.69,1.43-.93-1.58-1.15-3.46-.86-5.27,2.46-15.43.77-32.22-2.84-49.65Z"/>
  <path class="cls-1" d="M295.62,627.42c2.13,2.35,2.8,5.66,2.1,9.86-.46,5.11-1.5,9.91-3.13,14.38-.17.47-.36.94-.58,1.39h0c-.64,1.36-1.47,2.61-2.46,3.71-9.74,10.77-18.14,11.4-25.16,1.63-.17-.29-.33-.58-.49-.88-2.42-4.5-4.01-10.2-5.27-16.39-.66-4.39,0-8.49,2.01-12.31,10.73-15.87,21.73-15.58,32.98-1.39Z"/>
  <path class="cls-1" d="M295.52,360.39c1.44,2.92,1.94,6.25,1.41,9.45-.21,1.28-.56,2.38-1.08,3.26-4.11,5.16-8.77,9.37-13.96,12.68-3.26,2.98-7,2.8-11.05.47-4.11-2.25-7.14-5.59-9.08-10.01-1.54-8.59.32-16.83,5.17-24.79h0c1.14-1.88,2.44-3.73,3.91-5.57,5.79-3.87,11.21-4.55,16.15-1.25,2.77,1.84,4.75,4.61,5.87,7.72.25.71.46,1.43.63,2.17.45,2.01,1.1,3.98,2.03,5.87Z"/>
  <path class="cls-1" d="M294.01,653.06l-5.37,48c-1.89,19.01-4.54,33.94-9.25,37.96-4.66,5.03-7.39,5.54-6.98-1.31,2.99-17.27,2.83-34.79,0-52.53l-6.51-27.67c.16.3.32.59.49.88,7.02,9.77,15.42,9.14,25.16-1.63.99-1.1,1.82-2.35,2.46-3.7Z"/>
  <path class="cls-4" d="M284.98,602.77c.5-.47.76-1.09.76-1.87s-.26-1.37-.78-1.8-1.26-.64-2.23-.64c-.32,0-.94.03-1.84.1v-5.89h5.68v1.22h-4.41v3.43c.36-.02.69-.03,1-.03,1.25,0,2.22.31,2.91.94s1.03,1.5,1.03,2.59-.37,2.05-1.11,2.74-1.75,1.04-3.04,1.04c-1.08,0-1.89-.16-2.42-.48v-1.42c.8.51,1.61.77,2.44.77s1.5-.23,2.01-.7Z"/>
  <path class="cls-4" d="M284.57,407.02c.68.63,1.03,1.49,1.03,2.59s-.37,2.05-1.11,2.74-1.75,1.04-3.04,1.04c-1.09,0-1.9-.16-2.43-.48v-1.43c.8.52,1.62.78,2.44.78s1.5-.23,2.01-.7.76-1.09.76-1.87-.26-1.37-.78-1.8-1.26-.64-2.22-.64c-.33,0-.94.03-1.84.09v-5.88h5.67v1.21h-4.4v3.44c.36-.02.69-.03.99-.03,1.26,0,2.23.31,2.92.94Z"/>
  <polygon class="cls-4" points="276.72 413.19 270.09 413.19 270.09 412.01 272.74 412.01 272.74 402.9 270.02 403.71 270.02 402.44 274.08 401.2 274.08 412.01 276.72 412.01 276.72 413.19"/>
  <path class="cls-4" d="M275.78,600.2v-5.07c0-.36.01-.77.03-1.21h-.03c-.08.19-.23.49-.45.9l-3.61,5.38h4.06ZM275.78,601.29h-5.51v-.88l5.22-7.74h1.62v7.53h1.5v1.09h-1.5v3.11h-1.33v-3.11Z"/>
  <path class="cls-1" d="M270.84,345.88c-1.47,1.84-2.77,3.69-3.91,5.56,5.15-24.12,6.55-49.23,5.64-74.98-.08-2.15.4-4.32,1.56-6.14,2.2-3.45,4.36-2.51,6.48,2.03,3.51,7.14,7.52,31.21,12.25,80-1.12-3.11-3.1-5.88-5.87-7.72-4.94-3.3-10.36-2.62-16.15,1.25Z"/>
  <path class="cls-1" d="M253.13,625.04c.21,2.17.31,4.34.31,6.52,0,6.53-.9,13.13-2.59,19.8-.19,1.12-.47,2.13-.84,3.01-.31.73-.73,1.38-1.24,1.93-1.65,1.81-4.24,2.61-6.75,2.17-2.37-.42-4.85-.45-7.41-.16-2.12.24-4.17.99-6.01,2.12-3.4,2.09-7.11,1.71-11.02-.26-1.56-.79-3.3-1.14-5.04-1.14h-7.61c-.95.08-1.82-.07-2.61-.45-1.44-.68-2.63-2.08-3.63-4.08-2.02-6.36-3.02-13.25-2.95-20.71-.11-.98-.16-1.92-.16-2.83,0-5.89,2.31-10.24,7.76-12.53,6.06-1.79,11.79-1.49,17.23.59,2.67,1.84,5.43,1.97,8.28.69,6.68-3.43,13.14-4.63,19.22-1.95,2.85,1.26,4.76,4.11,5.06,7.28Z"/>
  <path class="cls-1" d="M248.56,364.41c1.37,2.88,1.62,6.15,1.22,9.62-3.08,7.95-8.68,11.89-16.06,12.97-1.88.28-3.78-.2-5.37-1.24-4.14-2.69-8.21-3.13-12.21-.39-5.08,2.87-9.8-.09-14.35-5.63-3.63-5.13-3.93-12.24-1.25-21.15.48-1.6,1.39-3.02,2.59-4.15.57-.55,1.2-1.02,1.89-1.41l3.72-2.14c.68-.39,1.44-.61,2.22-.65,2.81-.16,5.39-.48,7.46-1.16,4.59-1.92,8.65-2.21,12.08-.53.7.34,1.5.47,2.28.42,4.08-.27,7.48.22,9.71,1.99.77.6,1.41,1.36,1.88,2.3l4.19,11.15Z"/>
  <path class="cls-1" d="M247.6,691.19c.13,3.85-.12,7.72-.76,11.52-2.29,13.51-6.01,24.81-14.36,28.92-4.24,3.26-5.51,2.05-4.83-2.08.31-1.85.94-3.63,1.84-5.26,3.74-6.83,5.47-16.81,5.6-29.31,1.22-9.1-.55-15.11-5.9-17.45-2.05-1.39-4.13-.63-6.24,1.75-6.19,8.01-10.89,17.81-13.03,30.71-1.1,9.97-4.02,18.51-9.07,25.36-3.61,3.3-5.93,1.93-6.58-5.47.02-12.12,1.78-24.2,5.22-36.23,3.83-13.3,5.42-25.35,2.83-35.07.79.38,1.66.53,2.61.45h7.61c1.74,0,3.48.35,5.04,1.14,3.91,1.97,7.62,2.35,11.02.26,1.84-1.13,3.89-1.88,6.01-2.12,2.56-.29,5.04-.26,7.41.16,2.51.44,5.1-.36,6.75-2.17-1.82,7.61-1.65,20.83-1.17,34.89Z"/>
  <path class="cls-4" d="M230.74,406.47c-.39-.47-.95-.7-1.67-.7s-1.26.23-1.69.7-.64,1.03-.64,1.66c0,.81.21,1.49.64,2.06.43.56,1,.85,1.7.85s1.23-.25,1.64-.74c.41-.5.62-1.12.62-1.88,0-.83-.2-1.48-.6-1.95ZM226.65,406.29h.03c.54-1.1,1.44-1.66,2.68-1.66,1.03,0,1.84.33,2.45.99.6.66.91,1.54.91,2.64s-.35,2.09-1.04,2.81c-.7.73-1.58,1.1-2.65,1.1-1.17,0-2.1-.47-2.77-1.41s-1-2.25-1-3.95c0-2.06.43-3.7,1.31-4.93.88-1.22,2.04-1.84,3.48-1.84.82,0,1.47.12,1.95.34v1.27c-.61-.31-1.25-.47-1.92-.47-1.04,0-1.87.46-2.5,1.39-.62.93-.93,2.17-.93,3.72Z"/>
  <path class="cls-4" d="M227.38,598.91c-.43.47-.64,1.02-.64,1.66,0,.8.21,1.48.64,2.05s1,.85,1.7.85,1.23-.24,1.64-.74c.41-.49.62-1.12.62-1.88,0-.82-.2-1.47-.6-1.94-.39-.47-.95-.71-1.67-.71s-1.26.24-1.69.71ZM226.65,598.73h.03c.54-1.11,1.44-1.66,2.68-1.66,1.03,0,1.84.33,2.45.98.6.66.91,1.54.91,2.64s-.35,2.09-1.04,2.82c-.7.73-1.58,1.09-2.65,1.09-1.17,0-2.1-.47-2.77-1.41-.67-.93-1-2.25-1-3.95,0-2.05.43-3.69,1.31-4.92s2.04-1.84,3.48-1.84c.82,0,1.47.11,1.95.33v1.27c-.61-.31-1.25-.46-1.92-.46-1.04,0-1.87.46-2.5,1.39-.62.92-.93,2.16-.93,3.72Z"/>
  <polygon class="cls-4" points="220.76 399.98 220.76 410.79 223.4 410.79 223.4 411.97 216.76 411.97 216.76 410.79 219.42 410.79 219.42 401.68 216.7 402.49 216.7 401.21 220.76 399.98"/>
  <path class="cls-1" d="M203.13,354.44c10.63-12.07,8.93-36.34,2.62-65.15-.48-2.19.05-4.56,1.68-6.09,1.35-1.27,2.83-1.32,4.45.05,1.72,1.45,2.66,3.64,2.73,5.88.21,6.89,1.58,13.69,4.12,20.4,4.81-9.47,5.3-20.02,2.93-31.28-.24-1.13-.17-2.33.38-3.35,1.12-2.09,2.7-1.58,4.64,1.06,3.98,7.62,7.15,17.32,9.15,28.21.93-4.72,1.36-9.89,1.43-15.4.02-1.7.68-3.4,2.01-4.45,1.92-1.51,3.58-.54,4.98,2.92,2.83,9.57-.03,38.58-1.76,63.71h0c-2.23-1.76-5.63-2.25-9.71-1.98-.78.05-1.58-.08-2.28-.42-3.43-1.68-7.49-1.39-12.08.53-2.07.68-4.65,1-7.46,1.16-.78.04-1.54.26-2.22.65l-3.72,2.14c-.69.39-1.32.86-1.89,1.41Z"/>
  <path class="cls-4" d="M215.44,600.41l5.22-7.74h1.62v7.53h1.5v1.09h-1.5v3.11h-1.33v-3.11h-5.51v-.88ZM216.9,600.2h4.05v-5.07c0-.36.01-.77.04-1.21h-.04c-.07.19-.22.49-.45.9l-3.6,5.38Z"/>
      <path class="cls-1" style="fill: rgba(239, 68, 68, 0.18); fill-opacity: 1; stroke: #fca5a5; stroke-opacity: 1; stroke-width: 1.1; filter: url(#soft-outline);" d="M186.78,358.69c2.15,2.61,3.12,6,3.07,9.38-.04,3.4-.51,6.9-1.44,10.5-1.64,4.5-4.53,7.25-8.49,8.49-5.12.85-10.04.25-14.66-2.56-2.7-2.08-5.73-2.07-8.96-.93-4.89,2.11-8.02.57-9.96-3.47-.26-.55-.58-1.05-.94-1.54-3.09-4.17-3.41-11.62-3.06-19.89.27-2.41.97-4.09,2.34-4.61.38-.14.81-.2,1.3-.15,3.76,1.35,7.28,2,9.74-.42,4.96-2.37,9.96-2.3,15.01,1.23,1.06,1.1,2.36,1.82,3.87,2.21,1.45.37,2.98.08,4.37-.49,2.15-.89,4.13-.75,5.95.5.64.44,1.26,1.03,1.86,1.75Z"/>
  <path class="cls-1" d="M185.7,659.85c.56,27.22-4.66,47.2-15.02,60.73-3.5,3.53-5.84,3.93-6.12-1.19-.12-2.12.33-4.23,1.09-6.19,3.95-10.19,5.82-20.85,5.18-32.09-.1-1.87-1.06-3.65-2.63-4.51-1.54-.85-3.19-.64-4.99,1.05-6.81,12.68-11.96,27.57-15.84,44.16-.43,1.86-1.31,3.59-2.67,4.85-2.45,2.28-4.19,1.36-4.6-5.53-.06-1.05-.02-2.12.12-3.16l3.76-28.57c2.41-9.96,3.25-20.91,2.85-32.67.27.21.58.4.91.56,1.52.73,3.26.47,4.78-.26,3.41-1.65,7.03-.48,10.8,2.82,2.57,1.39,4.62,1.39,6.15,0,3.92-3.21,7.81-2.13,11.69.39,1.47.96,3.35.78,4.54-.39Z"/>
  <path class="cls-1" d="M158.73,308.82s.01.05.01.06h.01s-.01-.02-.02-.06ZM158.7,308.67c-.34-2.2-2.89-20.97-1.94-20.96,1.81-3.35,3.68-3.17,5.59,0,5.06,8.99,7.21,19.89,6.98,32.34,2.42-9.13,1.47-18.92-1.86-29.18-.02-2.48,1.1-2.95,3.02-2,7.2,5.98,11.02,15.69,12.45,28.04l1.98,40.03c-1.82-1.25-3.8-1.39-5.95-.5-1.39.57-2.92.86-4.37.49-1.51-.39-2.81-1.11-3.87-2.21-5.05-3.53-10.05-3.6-15.01-1.23-2.46,2.42-5.98,1.77-9.74.42-.49-.05-.92.01-1.3.15,5.59-13.07,7.16-26.96,4.06-41.8-1.21-5.98-1.75-11.55-.93-16.29,2.17-4.82,4.34-5.52,6.51-2.91,0,0,3.87,13.7,4.38,15.61Z"/>
  <polygon class="cls-4" points="174.3 592.67 174.3 593.1 169.66 604.4 168.26 604.4 172.66 593.89 166.74 593.89 166.74 592.67 174.3 592.67"/>
  <polygon class="cls-4" points="174.3 400.94 174.3 401.36 169.65 412.67 168.26 412.67 172.66 402.15 166.74 402.15 166.74 400.94 174.3 400.94"/>
  <polygon class="cls-4" points="162.44 400.68 162.44 411.49 165.08 411.49 165.08 412.67 158.45 412.67 158.45 411.49 161.1 411.49 161.1 402.38 158.38 403.19 158.38 401.91 162.44 400.68"/>
  <path class="cls-4" d="M162.64,600.2v-5.07c0-.36,0-.77.03-1.21h-.03c-.08.19-.23.49-.45.9l-3.61,5.38h4.06ZM157.12,600.41l5.22-7.74h1.62v7.53h1.51v1.09h-1.51v3.11h-1.32v-3.11h-5.52v-.88Z"/>
  <path class="cls-1" d="M135.09,625.76c1.51,3.04,1.2,7.03-.03,11.49-.35,1.28-.69,2.57-.92,3.89-.83,4.9-2.52,9.35-5.3,13.24-.23.45-.49.84-.79,1.17,0,.01-.01.01-.01.02-.89,1-2.04,1.47-3.44,1.49-4.95-.33-9.51-1.43-13.72-3.26-2.98-1.03-6.19-.86-9.58.12-1.94,1.2-3.66,1.03-5.2-.34h0c-.31-.28-.62-.6-.92-.98-1.5-1.88-2.27-4.39-2.37-6.94l-.66-15.19c-.1-2.51.54-5.02,1.92-6.96,1.73-2.44,4.01-4.02,6.93-4.61,4.26-.39,7.99-.12,10.89,1.16,2.13,1.33,4.22,1.42,6.26.12,4.76-5.06,10.56-2,16.94,5.58Z"/>
  <path class="cls-1" d="M130.22,359.37c5.38,5.1,5.92,11.97,1.39,20.71-2.13,5.19-5,7.63-8.49,7.7-2.11.05-4.1-.94-5.68-2.34-3.12-2.76-6.48-3.13-10.15-.36-4.48,2.81-8.1,2.53-10.6-1.74-3.87-6.38-4.94-13.28-3.12-20.71.48-1.9,1.25-3.45,2.39-4.59.22-.24.47-.46.73-.66,1.24-.94,2.85-1.24,4.39-1.03l2.48.34c1.08.15,2.13.52,3.06,1.09,3.62,2.23,6.98,2.98,9.9,1.29.81-.47,1.72-.76,2.64-.94,4.05-.8,7.79-.59,11.06,1.24Z"/>
  <path class="cls-1" d="M128.04,655.57c-4.95,9.05-5.38,22.66-9.9,37.67-.23.77-.53,1.52-.91,2.2-4.95,8.96-10.72,14.87-17.79,15.88-5.05-.09-10.57-4.34-7.08-13.25l4.96-14.49c3.14-8.26-.29-18.44-1.22-30,1.54,1.37,3.26,1.54,5.2.34,3.39-.98,6.6-1.15,9.58-.12,4.21,1.83,8.77,2.93,13.72,3.26,1.4-.02,2.55-.49,3.44-1.49Z"/>
  <path class="cls-1" d="M130.22,359.37c-3.27-1.83-7.01-2.04-11.06-1.24-.92.18-1.83.47-2.64.94-2.92,1.69-6.28.94-9.9-1.29-.93-.57-1.98-.94-3.06-1.09l-2.48-.34c-1.54-.21-3.15.09-4.39,1.03-.26.2-.51.42-.73.66,3.24-9.44,5.22-20.34,6.02-32.65.55-8.49.53-17.65-.03-27.44.03-1.18.12-2.28.3-3.25.73-4.07,2.92-6.12,7.96-4.2,5.36,3.54,7.95,10.95,8.61,21.06,1.44,17.93,4.9,34.16,11.4,47.81Z"/>
  <path class="cls-4" d="M116.87,402.71c-.38.33-.57.74-.57,1.24,0,1.02.64,1.79,1.91,2.31,1.29-.53,1.94-1.3,1.94-2.29,0-.54-.17-.96-.51-1.28-.34-.31-.8-.46-1.38-.46-.55,0-1.01.16-1.39.48ZM114.5,410.15c0-1.5.85-2.6,2.54-3.28v-.04c-1.41-.65-2.11-1.6-2.11-2.84,0-.85.32-1.54.96-2.09.65-.54,1.48-.81,2.49-.81.92,0,1.67.25,2.26.76s.88,1.16.88,1.96c0,1.29-.72,2.3-2.17,3.02v.04c1.71.61,2.56,1.66,2.56,3.17,0,.97-.34,1.74-1.04,2.31-.7.58-1.67.86-2.91.86-1.01,0-1.83-.28-2.48-.85-.65-.56-.98-1.3-.98-2.21ZM118.12,407.5c-1.5.6-2.24,1.46-2.24,2.59,0,.58.22,1.06.65,1.43.43.38,1,.57,1.71.57s1.23-.19,1.66-.56.64-.83.64-1.39c0-1.18-.81-2.06-2.42-2.64Z"/>
  <path class="cls-4" d="M114.5,601.6c0-1.5.85-2.6,2.54-3.29v-.03c-1.41-.65-2.11-1.6-2.11-2.85,0-.84.32-1.54.96-2.08.65-.54,1.48-.81,2.49-.81.92,0,1.67.25,2.26.76.59.5.88,1.16.88,1.95,0,1.3-.72,2.31-2.17,3.03v.03c1.71.61,2.56,1.67,2.56,3.18,0,.97-.34,1.74-1.04,2.31s-1.67.86-2.91.86c-1.01,0-1.83-.28-2.48-.85s-.98-1.3-.98-2.21ZM118.26,593.67c-.55,0-1.01.17-1.39.49-.38.33-.57.74-.57,1.24,0,1.02.64,1.79,1.91,2.31,1.29-.54,1.94-1.3,1.94-2.29,0-.54-.17-.97-.51-1.28s-.8-.47-1.38-.47ZM115.88,601.53c0,.59.22,1.07.65,1.44s1,.56,1.71.56,1.23-.18,1.66-.55.64-.83.64-1.4c0-1.17-.81-2.05-2.42-2.63-1.5.59-2.24,1.46-2.24,2.58Z"/>
  <polygon class="cls-4" points="110.09 401.03 110.09 411.84 112.73 411.84 112.73 413.02 106.09 413.02 106.09 411.84 108.74 411.84 108.74 402.73 106.03 403.54 106.03 402.26 110.09 401.03"/>
  <path class="cls-4" d="M109.99,592.73h1.62v7.53h1.5v1.09h-1.5v3.11h-1.33v-3.11h-5.51v-.88l5.22-7.74ZM110.28,600.26v-5.07c0-.36.01-.77.04-1.21h-.04c-.07.19-.22.49-.45.9l-3.6,5.38h4.05Z"/>
  <path class="cls-1" d="M102.15,294.68l.1.02c-.18.97-.27,2.07-.3,3.25.56,9.79.58,18.95.03,27.44-3.42-8.29-5.88-16.44-7.1-24.39-.22-1.47-.12-3,.42-4.39,1.21-3.12,3.5-3.77,6.85-1.93Z"/>
  <path class="cls-1" d="M146.83,656.72c-.75-.58-1.27-1.38-1.64-2.34-2.17-5.6-3.25-12-3.54-18.98,0-.29-.02-.58-.02-.87,0-3.04.67-6.06,2.14-8.66,3.57-6.28,10.12-8.34,20.21-5.39,2.61,1.88,5.03,1.96,7.25,0,4.77-2.47,9.23-3.56,13.16-2.37,3.55,1.07,6.06,4.4,6.76,8.25.56,3.06.86,6.14.86,9.23s-.32,6.38-1.01,9.6l-3.62,11.17c-.28.98-.62,1.84-1,2.57-.18.35-.41.66-.68.92-1.19,1.17-3.07,1.35-4.54.39-3.88-2.52-7.77-3.6-11.69-.39-1.53,1.39-3.58,1.39-6.15,0-3.77-3.3-7.39-4.47-10.8-2.82-1.52.73-3.26.99-4.78.26-.33-.16-.64-.35-.91-.56"/>
  <path class="cls-1" d="M311.69,658.16c-1.77-6.21-2.8-12.53-3.08-18.96-.67-4.43.15-8.07,2.01-11.17,11.46-15.24,22.17-16.61,31.93-.7,2.69,4.66,3.14,10.18,1.4,16.53-.2,1.56-2.45,8.99-5.01,14.02-.54,1.07-1.3,2.01-2.2,2.8-7.11,6.19-13.86,7.41-20.25,3.74-2.36-1.36-4.05-3.64-4.8-6.26Z"/>
  <path class="cls-1" d="M413.35,658.45c-2.83-8.01-4.84-17.72-6.4-28.38-.33-3.73.35-6.82,2.04-9.28,1-1.45,2.69-2.29,4.45-2.41l19.92-1.34c2.35.06,3.91,1.41,4.3,4.65.33,9.27.16,18.15-.65,26.52-.21,2.09-.74,4.12-1.6,6.02-.39.87-.85,1.7-1.38,2.5-8.72,13.18-15.6,13.63-20.68,1.72Z"/>
  <path class="cls-1" d="M841.85,308.85c-.02.07-.02.1-.01.06,0-.01.01-.03.01-.06Z"/>
  <path class="cls-1" d="M841.85,308.85s.01-.01,0-.02c.01,0,.01-.01.01-.02v-.02"/>
  <path class="cls-1" d="M158.75,308.89h-.01s-.01-.04-.01-.07"/>
  <path class="cls-1" d="M158.73,308.82s.02.07.02.07h0"/>
  <path class="cls-1" d="M158.73,308.82s0-.03,0-.05c-.01-.03-.01-.06-.02-.1"/>
</svg>
